<?xml version="1.0" standalone="no"?>
<!DOCTYPE svg PUBLIC "-//W3C//DTD SVG 20010904//EN"
 "http://www.w3.org/TR/2001/REC-SVG-20010904/DTD/svg10.dtd">
<svg version="1.0" xmlns="http://www.w3.org/2000/svg"
 width="512.000000pt" height="512.000000pt" viewBox="0 0 512.000000 512.000000"
 preserveAspectRatio="xMidYMid meet">
<metadata>
Created by potrace 1.14, written by Peter Selinger 2001-2017
</metadata>
<g transform="translate(0.000000,512.000000) scale(0.100000,-0.100000)"
fill="#000000" stroke="none">
<path d="M1892 3968 l3 -72 65 -13 c124 -24 255 -64 295 -92 75 -51 70 44 73
-1240 l2 -1154 -25 -43 c-37 -63 -94 -89 -236 -108 -63 -9 -127 -17 -144 -18
l-30 -3 -3 -73 -3 -72 666 0 665 0 0 73 0 72 -116 18 c-191 30 -262 65 -303
152 -21 45 -21 46 -21 1168 0 823 3 1133 12 1158 18 55 48 90 92 110 40 17
225 56 296 61 l35 3 3 73 3 72 -666 0 -666 0 3 -72z"/>
</g>
</svg>
