<?xml version="1.0" encoding="UTF-8" standalone="no"?>
<!-- Created with Inkscape (http://www.inkscape.org/) -->

<svg
   xmlns:dc="http://purl.org/dc/elements/1.1/"
   xmlns:cc="http://creativecommons.org/ns#"
   xmlns:rdf="http://www.w3.org/1999/02/22-rdf-syntax-ns#"
   xmlns:svg="http://www.w3.org/2000/svg"
   xmlns="http://www.w3.org/2000/svg"
   xmlns:sodipodi="http://sodipodi.sourceforge.net/DTD/sodipodi-0.dtd"
   xmlns:inkscape="http://www.inkscape.org/namespaces/inkscape"
   width="629"
   height="1200"
   viewBox="0 0 628.99999 1200"
   id="svg2"
   version="1.1"
   inkscape:version="0.91 r13725"
   sodipodi:docname="Falkreath.svg"
   inkscape:export-filename="C:\Users\user1\OneDrive\Nexus Files\Artist's Resource\Hold Capital Symbol Vectors\Files\PNG\Falkreath - No Background.png"
   inkscape:export-xdpi="756.00006"
   inkscape:export-ydpi="756.00006">
  <defs
     id="defs4" />
  <sodipodi:namedview
     id="base"
     pagecolor="#ffffff"
     bordercolor="#666666"
     borderopacity="1.0"
     inkscape:pageopacity="0.0"
     inkscape:pageshadow="2"
     inkscape:zoom="0.50000003"
     inkscape:cx="186.66223"
     inkscape:cy="630.2506"
     inkscape:document-units="px"
     inkscape:current-layer="layer1"
     showgrid="false"
     units="px"
     inkscape:showpageshadow="false"
     borderlayer="true"
     showguides="false"
     inkscape:guide-bbox="true"
     inkscape:snap-bbox="true"
     inkscape:bbox-paths="false"
     inkscape:bbox-nodes="false"
     inkscape:window-width="1920"
     inkscape:window-height="1027"
     inkscape:window-x="-5"
     inkscape:window-y="-5"
     inkscape:window-maximized="1"
     inkscape:object-nodes="true"
     inkscape:snap-smooth-nodes="true">
    <sodipodi:guide
       position="314.5,600"
       orientation="1,0"
       id="guide4147"
       inkscape:label=""
       inkscape:color="rgb(0,0,255)" />
  </sodipodi:namedview>
  <metadata
     id="metadata7">
    <rdf:RDF>
      <cc:Work
         rdf:about="">
        <dc:format>image/svg+xml</dc:format>
        <dc:type
           rdf:resource="http://purl.org/dc/dcmitype/StillImage" />
        <dc:title></dc:title>
      </cc:Work>
    </rdf:RDF>
  </metadata>
  <g
     inkscape:groupmode="layer"
     id="layer1"
     inkscape:label="Background"
     sodipodi:insensitive="true"
     style="display:inline">
    <rect
       style="opacity:1;fill:#cccccc;fill-opacity:0;fill-rule:nonzero;stroke:none;stroke-width:10;stroke-linecap:round;stroke-linejoin:round;stroke-miterlimit:4;stroke-dasharray:none;stroke-opacity:1"
       id="rect4146"
       width="629"
       height="1200"
       x="0"
       y="0" />
  </g>
  <g
     inkscape:groupmode="layer"
     id="layer2"
     inkscape:label="Falkreath"
     style="display:inline;opacity:1"
     transform="translate(0,782)">
    <path
       style="fill:#ffffff;fill-opacity:0;fill-rule:evenodd;stroke:#ffffff;stroke-width:1.00000072px;stroke-linecap:butt;stroke-linejoin:miter;stroke-opacity:1"
       d="m 217.67756,-781.49955 c -68.9837,-0.022 -41.9143,65.72947 -28.1894,101.41602 -10.9309,6.18825 -19.3478,13.78281 -25.3496,17.95898 -2.9164,-13.5876 -2.7085,-32.911 -0.8477,-59.05469 3.0507,-42.17856 -21.9824,-33.12676 -36.8965,2.40039 -11.52373,27.45082 -9.15334,65.4512 -5.19138,87.94923 -29.815506,31.82553 -51.310596,39.95879 -73.833976,86.8164 -17.20417,35.79152 -9.15167,142.16122 21.01953,206.64844 -17.04246,7.18454 -37.28488,-3.63486 -60.9121103,-25.03711 -7.46708998,19.81766 -2.84986,74.58252 48.5878903,99.65234 80.511346,35.07801 128.318046,94.07342 164.728546,161.52734 6.3604,13.076675 -1.3109,18.988665 -12.2442,-4.875 -24.7974,-60.72431 -72.9589,-85.47761 -114.095676,-98.43164 l -38.46093,-21.58593 c -35.8092,-14.03931 -60.3305203,-12.26092 -54.6816403,31.78711 12.2965103,80.06662 47.3163903,137.514015 97.5000003,166.662105 18.068466,15.36778 31.960446,30.5541796 32.505846,53.53907 l 0,62.9707 c 1.0989,17.791875 4.4657,35.284405 14.0195,51.951165 l 55.1348,94.92969 c 9.5029,18.2223 12.1397,34.92157 11.4746,50.88867 l -1.4902,50.67774 c 0.1423,24.85457 1.6548,49.37395 35.1601,66.00195 36.884,11.10373 60.8534,-25.40832 39.6192,-47.67383 -19.8139,-19.19981 -44.7294,4.29036 -36.3457,20.12305 7.2577,14.32834 28.1953,6.02667 24.1328,-6.26953 -1.0225,-2.64935 -3.5229,-4.71115 -5.0996,-5.40625 0.2483,-7.57832 9.8858,-1.13984 11.3633,2.43359 2.5434,7.71783 0.63,12.74341 -2.3399,16.64258 -9.9601,13.07668 -36.7866,6.40645 -35.9375,-15.625 0.4984,-12.93173 14.2749,-25.44531 27.125,-25.33985 14.3012,0.11721 26.5282,9.96103 30.9024,25.38477 3.3414,11.78236 -2.973,25.6558 -11.6797,34.35352 l -0.209,15.58398 54.707,0 -0.2109,-15.58398 c -8.7067,-8.69772 -15.0193,-22.57116 -11.6778,-34.35352 4.3742,-15.42374 16.6012,-25.26756 30.9024,-25.38477 12.8501,-0.10546 26.6245,12.40812 27.123,25.33985 0.8491,22.03145 -25.9755,28.70168 -35.9355,15.625 -2.9699,-3.89917 -4.8833,-8.92475 -2.3399,-16.64258 1.4775,-3.57343 11.115,-10.01191 11.3633,-2.43359 -1.5768,0.6951 -4.0713,2.7569 -5.0937,5.40625 -4.0625,12.2962 16.8692,20.59787 24.1269,6.26953 8.3838,-15.83269 -16.5319,-39.32286 -36.3457,-20.12305 -21.2342,22.26551 2.7351,58.77756 39.6192,47.67383 33.5052,-16.628 35.0178,-41.14738 35.1601,-66.00195 l -1.4902,-50.67774 c -0.6651,-15.9671 1.9717,-32.66637 11.4746,-50.88867 l 20.5059,-30.68555 34.6289,-64.24414 c 9.5537,-16.66676 12.9187,-34.15929 14.0175,-51.951165 l 0,-62.9707 c 0.5454,-22.9848904 14.4394,-38.17129 32.5079,-53.53907 50.1836,-29.14809 85.2035,-86.595485 97.5,-166.662105 5.6489,-44.04803 -18.8725,-45.82642 -54.6817,-31.78711 l -38.4609,21.58593 c -41.1368,12.95403 -89.2984,37.70733 -114.0957,98.43164 -10.9333,23.863665 -18.6046,17.951675 -12.2442,4.875 36.4105,-67.45392 84.217,-126.44933 164.7285,-161.52734 51.4377,-25.06982 56.055,-79.83468 48.5879,-99.65234 -23.6272,21.40225 -43.8696,32.22165 -60.9121,25.03711 30.1712,-64.48722 38.2238,-170.85692 21.0196,-206.64844 -22.5234,-46.85761 -44.0185,-54.99087 -73.834,-86.8164 3.9619,-22.49803 6.3323,-60.49841 -5.1914,-87.94923 -14.9141,-35.52715 -39.9473,-44.57895 -36.8965,-2.40039 1.8607,26.14369 2.0686,45.46709 -0.8477,59.05469 -6.0018,-4.17617 -14.4187,-11.77073 -25.3496,-17.95898 13.7249,-35.68655 40.7943,-101.43822 -28.1894,-101.41602 -39.075,0.012 -81.0257,19.3846 -96.8223,26.97266 -15.7965,-7.58806 -57.7473,-26.96016 -96.8223,-26.97266 z m 191.7383,42.57031 c -0.055,8.00142 -5.3803,19.1644 -11.3828,29.67578 -8.2977,-5.83501 -17.6737,-12.02078 -27.5039,-17.61914 10.8707,-4.71818 24.1222,-10.84426 38.8867,-12.05664 z m -189.9648,1.84961 c 15.5905,0.85173 28.9587,6.07245 36.4961,12.2461 -9.8301,5.59836 -17.5246,11.63374 -25.8223,17.46875 -6.0024,-10.51138 -10.6186,-21.71342 -10.6738,-29.71485 z m 95.0488,40.83985 c 15.7405,7.81303 32.1296,17.99406 44.0742,27.97656 -12.6577,10.66645 -26.4071,21.08912 -44.0742,30.64453 -15.1214,-6.27717 -29.2112,-16.72502 -44.2832,-31.06445 13.9947,-9.49208 27.595,-19.13986 44.2832,-27.55664 z m -87.5488,56.16211 34.0957,27.14258 -28.3907,9.44726 c -19.5315,6.78938 -19.3319,-2.05945 -25.2968,-8.27929 l -10.1094,1.22656 -69.5469,113.53125 c -23.86283,41.76479 -23.08013,30.99893 -23.79294,8.0625 -3.88655,-46.35231 20.06264,-66.09925 40.78904,-83.54102 l 82.252,-67.58984 z m 175.0976,0.008 c 28.5895,20.4453 53.8945,42.81356 82.252,67.58203 20.7343,20.56201 43.7137,46.77871 40.789,83.54102 -0.7129,22.93642 0.0698,33.7101 -23.7929,-8.05469 l -67.0821,-111.32031 -11.4296,-1.94336 c -5.9648,6.21984 -6.9159,13.56671 -26.4473,6.77734 l -28.3926,-9.44531 34.1035,-27.13672 z m -87.5488,61.64453 66.9707,28.625 c 54.9273,36.86128 28.1233,29.86921 -5.0937,14.41797 -19.9296,-9.16045 -36.9855,-11.71725 -61.877,0.63672 -24.8915,-12.35397 -41.9492,-9.79717 -61.8789,-0.63672 -33.217,15.45124 -60.0191,22.44331 -5.0918,-14.41797 l 66.9707,-28.625 z m 0,67.5293 31.8945,14.54883 c -11.6898,6.71029 -23.1678,15.36966 -31.8945,25.67383 -7.593,-7.81421 -17.348,-16.67374 -31.8945,-25.67383 l 31.8945,-14.54883 z m 93.4238,52.46875 c 67.5583,-0.39631 99.5709,82.49532 88.8653,129.60937 -8.5419,39.38483 -35.2508,49.45669 -51.2832,28.50195 -15.1884,-19.85166 -53.8783,-85.66022 -88.3692,-125.84765 11.433,-16.28877 24.6677,-29.59975 40.5625,-31.58594 3.4936,-0.43655 6.9021,-0.65824 10.2246,-0.67773 z m -193.0996,2.32031 c 2.5913,-0.0219 5.2306,0.10248 7.9141,0.38282 15.8714,2.30834 37.7075,10.74575 48.5957,29.7539 -31.6869,33.06764 -71.1034,103.72791 -85.2832,122.17187 -28.2978,36.80738 -47.6374,0.40555 -50.586,-28.08203 -6.4515,-62.33074 26.6705,-123.78079 79.3594,-124.22656 z m 99.6758,85.49219 c 28.6642,33.40812 71.8147,103.76922 73.5898,124.43359 3.7086,43.1736 -40.3483,117.05049 -73.5898,143.57812 -34.1955,-25.35882 -75.1283,-95.9499 -71.9082,-143.57812 1.252,-18.51804 44.5228,-91.49324 71.9082,-124.43359 z"
       id="path4187-2"
       inkscape:connector-curvature="0" />
    <g
       id="g4203"
       transform="matrix(3.3650078,0,0,3.3584541,-402.24662,-886.89158)"
       style="fill:#000000;fill-opacity:1;stroke:#000000;stroke-opacity:1">
      <path
         sodipodi:nodetypes="scccscscccccccccccccccccccccsscsccccscssccccccccccccccccsccccccccccccccccccccscccccccccccssccsssccccccccccccccscccccccccccccccccccccccccccscscccscssccssccsscccccccccccccccccccccccccccccccsccccs"
         inkscape:connector-curvature="0"
         id="path4187"
         d="m 184.22656,31.380859 c -20.5003,-0.0066 -12.45567,19.571382 -8.37695,30.197266 -3.2484,1.842589 -5.74961,4.104174 -7.5332,5.347656 -0.86668,-4.045792 -0.80492,-9.799541 -0.25196,-17.583984 0.90662,-12.558922 -6.53272,-9.863579 -10.96484,0.714844 -3.42458,8.173646 -2.72037,19.488578 -1.54297,26.1875 -8.86046,9.476244 -15.248,11.897472 -21.94141,25.849609 -5.11267,10.65714 -2.72006,42.32979 6.2461,61.53125 -5.06461,2.13924 -11.08011,-1.08243 -18.10156,-7.45508 -2.21904,5.90083 -0.84662,22.20719 14.43945,29.67188 23.92607,10.44469 38.13279,28.01089 48.95312,48.0957 1.89016,3.89366 -0.38956,5.65438 -3.63867,-1.45117 -7.36918,-18.08103 -21.68138,-25.45146 -33.90625,-29.3086 L 136.17773,196.75 c -10.64164,-4.18029 -17.92871,-3.65073 -16.25,9.46484 3.65423,23.84032 14.06124,40.94598 28.97461,49.625 5.36952,4.57585 9.49808,9.09752 9.66016,15.94141 l 0,18.75 c 0.32656,5.29764 1.32686,10.50612 4.16602,15.46875 l 16.38476,28.26562 c 2.82405,5.4258 3.60782,10.39805 3.41016,15.15235 l -0.44336,15.08984 c 0.0423,7.4006 0.49226,14.70126 10.44922,19.65235 10.96106,3.3062 18.08374,-7.56563 11.77343,-14.19532 -5.88819,-5.71686 -13.29223,1.27791 -10.80078,5.99219 2.15681,4.26635 8.37916,1.79408 7.17188,-1.86719 -0.30385,-0.78886 -1.04705,-1.4024 -1.51563,-1.60937 0.0738,-2.25649 2.93789,-0.3394 3.37696,0.72461 0.75584,2.29803 0.18725,3.79408 -0.69532,4.95508 -2.9599,3.89366 -10.93202,1.90765 -10.67968,-4.65235 0.14812,-3.8505 4.2418,-7.57632 8.06054,-7.54492 4.24997,0.0349 7.8837,2.96608 9.1836,7.55859 0.993,3.50827 -0.88329,7.63872 -3.47071,10.22852 l -0.0625,4.64062 16.25782,0 -0.0625,-4.64062 c -2.58742,-2.5898 -4.46371,-6.72025 -3.47071,-10.22852 1.2999,-4.59251 4.93363,-7.52369 9.1836,-7.55859 3.81874,-0.0314 7.91242,3.69442 8.06054,7.54492 0.25234,6.56 -7.71978,8.54601 -10.67968,4.65235 -0.88257,-1.161 -1.45116,-2.65705 -0.69532,-4.95508 0.43907,-1.06401 3.30316,-2.9811 3.37696,-0.72461 -0.46858,0.20697 -1.20982,0.82051 -1.51368,1.60937 -1.20727,3.66127 5.01312,6.13354 7.16993,1.86719 2.49145,-4.71428 -4.91259,-11.70905 -10.80078,-5.99219 -6.31031,6.62969 0.81237,17.50152 11.77343,14.19532 9.95696,-4.95109 10.40692,-12.25175 10.44922,-19.65235 l -0.44336,-15.08984 c -0.19766,-4.7543 0.58611,-9.72655 3.41016,-15.15235 l -0.31641,-8.26953 -7.13281,11.23829 c -1.29485,2.34102 -2.41966,5.24861 -2.71484,10.92187 l 0,10.92187 c -0.64513,-2.59652 -2.96766,-6.53544 -8.04883,-8.44335 3.3053,-13.85293 2.71675,-21.34851 -3.00391,-28.07422 -0.3027,1.49569 -1.06415,5.39928 -2.88086,8.39257 3.24792,6.46209 1.14643,12.55635 -1.39258,15.86915 -3.40821,4.4469 -7.72199,3.69836 -12.53515,3.69335 l 3.69726,-5.56835 -5.24414,-6.62891 -9.98828,12.31641 c -5.08117,1.90791 -7.4037,5.84683 -8.04883,8.44335 l 0,-10.92187 c -0.29518,-5.67326 -1.41999,-8.58084 -2.71484,-10.92187 -5.16603,-13.84837 -19.34026,-26.85916 -21.05469,-41.71485 l -0.2539,-21.33984 c -0.29859,-10.67159 -5.74974,-16.70554 -13.12305,-21.60157 -16.53719,-11.29902 -23.28884,-26.59989 -24.70313,-44.31054 -0.71356,-7.27642 2.2916,-8.88472 8.83985,-5.08985 l 10.98242,5.625 c 16.9484,6.0958 25.91694,13.99891 30.48047,23.39063 l 2.5,5.08203 c 4.09576,7.62142 14.35151,11.00744 10.05664,-1.32422 -10.99032,-26.745 -26.67429,-42.26437 -51.76563,-55.67383 -8.26882,-4.02473 -11.99195,-10.75725 -12.5664,-15.40234 2.71391,2.91729 5.16478,4.98535 8.38672,5.17773 10.47497,0.57248 13.0045,-4.75377 9.96679,-11.32812 -7.60083,-19.44215 -8.92601,-44.74555 -4.46679,-53.72656 4.07248,-8.202107 10.68224,-15.925421 23.33789,-26.289066 -7.32387,-10.819551 -2.71034,-30.741187 1.1582,-34.724609 -1.27818,16.2111 -1.14233,28.014613 2.48438,32.095703 3.76057,-3.170177 7.02525,-5.934968 11.15429,-8.929687 l 3.24024,3.666015 c -10.22138,7.600538 -20.31776,16.2464 -30.16797,26.964844 -5.26648,5.74766 -7.34164,10.70643 -6.29883,22.40625 0.97371,11.97841 6.90945,16.80529 16.11523,1.47266 l 19.10743,-32.857426 c 4.62435,2.916829 6.99858,2.043505 9.41992,1.25 6.62858,-2.33631 12.80616,-4.671502 18.48242,-7.007812 -11.74376,-6.857903 -24.05756,-17.234778 -29.57422,-30.521484 -2.97258,-7.159375 -4.61935,-16.867472 5.29492,-17.054688 7.33986,-0.138602 15.71383,2.868376 22.95703,6.394531 l -4.26562,2.251953 c -4.67273,-2.328877 -9.28766,-4.398944 -15.64844,-5.310546 -7.95877,-1.140623 -8.55693,3.964287 -6.16992,11.017578 1.21945,3.603303 4.18757,8.213349 6.67969,11.21875 7.45766,8.993653 20.06276,19.011241 25.85156,19.503906 5.41544,-0.652997 13.97495,-8.177757 18.62109,-12 l 2.73243,1.910156 c -2.03702,2.086054 -6.88587,6.492476 -16.22852,12.589844 5.67626,2.33631 11.85384,4.671502 18.48242,7.007812 2.42134,0.793505 4.79557,1.666829 9.41992,-1.25 l 19.10743,32.857426 c 9.20578,15.33263 15.14152,10.50575 16.11523,-1.47266 1.04281,-11.69982 -1.03235,-16.65859 -6.29883,-22.40625 C 258.11688,79.463117 237.15546,64.10386 219.49023,52.765625 l 4.25196,-2.337891 c 12.73595,7.440081 25.26088,16.584876 35.49804,25.214844 3.86693,-4.477607 3.69746,-19.605861 2.67188,-31.345703 4.13252,2.948558 7.3869,22.643404 1.0957,34.412109 12.65565,10.363645 19.07791,18.086959 23.15039,26.289066 4.45922,8.98101 3.13404,34.28441 -4.46679,53.72656 -3.03771,6.57435 -0.50818,11.9006 9.96679,11.32812 3.22194,-0.19238 5.67281,-2.26044 8.38672,-5.17773 -0.57445,4.64509 -4.29758,11.37761 -12.5664,15.40234 -25.09134,13.40946 -40.77531,28.92883 -51.76563,55.67383 -4.29487,12.33166 5.96088,8.94564 10.05664,1.32422 l 2.5,-5.08203 c 4.56353,-9.39172 13.53207,-17.29483 30.48047,-23.39063 l 10.98242,-5.625 c 6.54825,-3.79487 9.55341,-2.18657 8.83985,5.08985 -1.41429,17.71065 -8.16594,33.01154 -24.70313,44.31054 -7.37331,4.89599 -12.82446,10.92998 -13.12305,21.60157 l -0.2539,21.33984 c -0.21312,5.19638 -2.35695,12.03267 -11.42578,24.74805 2.3445,1.44714 2.88785,3.19447 3.91406,4.86133 L 263.27148,306 c 2.83916,-4.96263 3.83946,-10.17111 4.16602,-15.46875 l 0,-18.75 c 0.16208,-6.84389 4.29064,-11.36556 9.66016,-15.94141 14.91337,-8.67902 25.32038,-25.78468 28.97461,-49.625 1.67871,-13.11557 -5.60836,-13.64513 -16.25,-9.46484 l -11.42969,6.42773 c -12.22487,3.85714 -26.53707,11.22757 -33.90625,29.3086 -3.24911,7.10555 -5.52883,5.34483 -3.63867,1.45117 10.82033,-20.08481 25.02705,-37.65101 48.95312,-48.0957 15.28607,-7.46469 16.65849,-23.77105 14.43945,-29.67188 -7.02145,6.37265 -13.03695,9.59432 -18.10156,7.45508 8.96616,-19.20146 11.35877,-50.87411 6.2461,-61.53125 -6.69341,-13.952137 -13.08095,-16.373365 -21.94141,-25.849609 1.1774,-6.698922 1.88161,-18.013854 -1.54297,-26.1875 -4.43212,-10.578423 -11.87146,-13.273766 -10.96484,-0.714844 0.55296,7.784443 0.61472,13.538192 -0.25196,17.583984 -1.78359,-1.243482 -4.2848,-3.505067 -7.5332,-5.347656 4.07872,-10.625884 12.12335,-30.203866 -8.37695,-30.197266 -11.61216,0.0037 -24.07909,5.771857 -28.77344,8.03125 -4.69435,-2.259393 -17.16128,-8.02751 -28.77344,-8.03125 z m 58.17774,4.087891 c 12.85702,0.242785 6.53345,16.574772 2.80078,22.568359 -0.37043,-0.279113 -2.31206,-1.68262 -2.68164,-1.953125 1.90158,-3.12833 3.33191,-6.40019 4.07031,-10.568359 1.90927,-10.777619 -11.24469,-6.04784 -17.18164,-3.929687 -12.42083,4.431433 -23.53065,11.684801 -34.0293,18.832031 l -3.0957,-2.904297 c 9.3929,-6.661101 18.07229,-11.850595 27.96289,-16.19336 7.36828,-3.23526 14.82205,-5.990021 22.1543,-5.851562 z m -1.19727,8.587891 c -0.0164,2.382473 -1.59903,5.706112 -3.38281,8.835937 -2.46588,-1.737407 -5.25255,-3.579147 -8.17383,-5.246094 3.23051,-1.404866 7.16899,-3.228848 11.55664,-3.589843 z m -56.45312,0.550781 c 4.63311,0.253608 8.60576,1.808242 10.8457,3.646484 -2.92128,1.666947 -5.20795,3.463765 -7.67383,5.201172 -1.78378,-3.129825 -3.15547,-6.465183 -3.17187,-8.847656 z M 213,56.767578 c 4.67769,2.326379 9.54802,5.357728 13.09766,8.330078 -3.76156,3.176001 -7.84742,6.279818 -13.09766,9.125 -4.49372,-1.869065 -8.68111,-4.98035 -13.16016,-9.25 4.15889,-2.826324 8.20083,-5.698928 13.16016,-8.205078 z m -26.01758,16.722656 10.13281,8.082032 -8.4375,2.8125 c -5.80429,2.021577 -5.74496,-0.612848 -7.51757,-2.464844 l -3.00391,0.365234 -20.66797,33.804684 c -7.09146,12.43572 -6.85848,9.22985 -7.07031,2.40039 -1.15499,-13.80168 5.9617,-19.681602 12.12109,-24.874996 z m 52.03516,0.002 c 8.49612,6.087711 16.01619,12.748085 24.44336,20.123046 6.16175,6.122462 12.99026,13.9288 12.12109,24.875 -0.21183,6.82946 0.0212,10.03729 -7.07031,-2.39843 l -19.93555,-33.146492 -3.39648,-0.578124 c -1.77261,1.851994 -2.05509,4.039155 -7.85938,2.017578 l -8.4375,-2.8125 z M 212.60547,316.73242 c -12.4446,-0.43425 -20.40415,15.21994 -15.89258,31.125 l 6.02344,-7.19336 c -1.91412,-7.40549 2.70381,-18.86095 11.30469,-16.78515 1.10535,-1.52746 2.25548,-4.34814 2.5625,-6.47657 -1.37453,-0.40678 -2.71068,-0.625 -3.99805,-0.66992 z"
         style="fill:#000000;fill-opacity:1;fill-rule:evenodd;stroke:#000000;stroke-width:0.29746616px;stroke-linecap:butt;stroke-linejoin:miter;stroke-opacity:1" />
      <path
         sodipodi:nodetypes="cccccccc"
         inkscape:connector-curvature="0"
         id="path4205"
         d="m 254.1165,250.81975 1.57836,-12.6269 c 7.93228,-6.94181 9.11769,-8.43617 12.18475,-13.07049 5.14411,-7.38531 13.10959,-12.27284 20.77148,-13.95109 L 273.12,226.44982 c -8.20575,8.77702 6.23543,15.74257 11.74302,5.3033 -0.10182,3.32411 -6.56876,14.09821 -16.41783,13.81695 -7.53895,0.16546 -8.61169,1.89999 -14.32869,5.24968 z"
         style="fill:#000000;fill-opacity:1;fill-rule:evenodd;stroke:#000000;stroke-width:0.29746616px;stroke-linecap:butt;stroke-linejoin:miter;stroke-opacity:1" />
      <path
         sodipodi:nodetypes="cccscccssscc"
         inkscape:connector-curvature="0"
         id="path4209"
         d="m 257.5625,267.95508 c 0,0 -17.47446,16.41562 -22.91992,25.3125 5.04882,12.46111 14.54075,11.8632 19.00976,5.6875 2.40039,-3.89611 3.1503,-7.32734 3.06997,-16.7654 -0.0678,-7.9613 0.84019,-14.2346 0.84019,-14.2346 z m -9.28125,13.875 c 0.22087,-0.0205 0.44612,-0.0204 0.67578,0.004 3.79603,0.2849 4.6602,4.92387 4.39563,8.77244 -0.23064,3.35493 -2.17686,9.23216 -7.06505,8.939 -4.0376,-0.24215 -5.40851,-5.1114 -4.81798,-8.83839 0.6338,-4.00012 3.23136,-8.71343 6.81162,-8.87695 z"
         style="fill:#000000;fill-opacity:1;fill-rule:evenodd;stroke:#000000;stroke-width:0.29746616px;stroke-linecap:butt;stroke-linejoin:miter;stroke-opacity:1" />
      <path
         sodipodi:nodetypes="cccccccsssccccccccccccccccccccsccccccccscscscccssccscsc"
         inkscape:connector-curvature="0"
         id="path4169"
         d="m 213,85.154297 -20.4707,8.712891 c -17.65068,7.871522 -18.81084,17.322172 -9.28125,20.455082 5.73987,2.2948 8.21508,-6.47837 24.74804,-5.71094 l -16.59375,6.93359 c 8.73471,3.64425 13.03678,7.5896 17.23047,12.16797 l -4.1875,4.58789 c -3.47067,-3.84421 -7.35692,-6.98256 -12.49023,-8.75 -2.47161,-0.851 -5.11468,-1.28786 -7.79492,-1.32031 -8.04074,-0.0973 -16.42161,3.44653 -21.56055,10.37891 -8.59834,11.59907 -11.6629,23.5445 -8.33789,38.30273 4.26465,14.62538 18.11607,24.058 29.88086,2.01562 7.83379,-12.6988 17.00521,-27.13287 26.48828,-38.16992 8.04955,-9.85498 15.15336,-15.39583 23.9668,-19.21289 l -16.59375,-6.93359 c 16.53296,-0.76743 19.00817,8.00574 24.74804,5.71094 9.52959,-3.13291 8.36943,-12.58356 -9.28125,-20.455082 z m 0,6.693359 19.90234,8.523434 c 16.32308,10.97567 8.35762,8.89367 -1.51367,4.29297 -5.92263,-2.72758 -10.99151,-3.48901 -18.38867,0.18946 -7.39716,-3.67847 -12.46604,-2.91704 -18.38867,-0.18946 -9.87129,4.6007 -17.83675,6.6827 -1.51367,-4.29297 z m 0,20.107424 9.47852,4.33203 c -3.47394,1.99803 -6.88516,4.5764 -9.47852,7.64453 -2.25647,-2.32673 -5.15567,-4.9647 -9.47852,-7.64453 z m 19.63767,10.99119 c -13.47502,4.20201 -46.91264,57.73247 -48.91613,65.82873 -0.62049,12.24623 9.49126,40.81083 29.27846,54.31484 19.39899,-13.24106 30.33877,-44.03906 29.43957,-54.31484 -0.63371,-4.83976 -15.2526,-28.35851 -24.88052,-40.83222 l 4.23587,-5.71924 c 7.64147,7.49055 18.79566,26.4933 26.83582,38.11311 10.31093,11.08578 20.66319,-0.0388 23.10754,-9.42454 3.32501,-14.75823 1.67408,-27.89936 -8.33789,-38.30273 -5.57105,-6.72958 -16.89181,-13.98856 -30.76272,-9.66311 z m 34.53421,43.22365 c -2.53847,11.72707 -10.47579,14.72573 -15.24024,8.48633 -4.51364,-5.91095 -16.01126,-25.50572 -26.26114,-37.47177 3.39763,-4.85008 7.33054,-8.81378 12.05411,-9.40518 22.14875,-2.77306 32.78516,23.6722 29.44727,38.39062 z m -81.44141,-37.78711 c 4.71662,0.68732 11.2057,3.19959 14.44141,8.85938 -9.41659,9.84609 -21.12985,30.88515 -25.34376,36.37695 -8.40943,10.95962 -14.15694,0.12102 -15.0332,-8.36133 -2.01154,-19.47211 8.92266,-38.65572 25.93555,-36.875 z m 27.26954,25.3418 c 8.51832,9.94747 21.34162,30.89745 21.86913,37.05039 1.10212,12.8552 -11.99054,34.85264 -21.86913,42.7514 -10.16208,-7.55074 -22.32609,-28.56981 -21.36915,-42.7514 0.37206,-5.51386 13.23088,-27.2422 21.36915,-37.05039 z"
         style="fill:#000000;fill-opacity:1;fill-rule:evenodd;stroke:#000000;stroke-width:0.29746616px;stroke-linecap:butt;stroke-linejoin:miter;stroke-opacity:1" />
      <path
         sodipodi:nodetypes="ccccccccc"
         inkscape:connector-curvature="0"
         id="path4194"
         d="m 201.85193,318.09509 c -0.20058,-3.79973 0.30434,-7.99282 1.66199,-13.10591 L 213,270.58929 l 9.4861,34.39989 c 3.70938,13.96998 0.87725,21.9866 -3.66369,29.00274 -2.07397,-2.37087 -2.95368,-3.54932 -4.79126,-6.3138 3.28963,-5.18098 9.04335,-13.80868 -1.03115,-22.87834 -4.09323,3.68497 -5.61952,7.29616 -5.81188,10.48055 -2.02331,0.64616 -3.72802,1.75402 -5.33619,2.81476 z"
         style="fill:#000000;fill-opacity:1;fill-rule:evenodd;stroke:#000000;stroke-width:0.29746616px;stroke-linecap:butt;stroke-linejoin:miter;stroke-opacity:1" />
      <ellipse
         ry="4.0544901"
         rx="3.7681639"
         cy="291.82294"
         cx="247.1273"
         id="path4200"
         style="opacity:1;fill:#000000;fill-opacity:1;stroke:#000000;stroke-width:0;stroke-linecap:butt;stroke-linejoin:miter;stroke-miterlimit:4;stroke-dasharray:none;stroke-opacity:1" />
      <path
         style="fill:#000000;fill-opacity:1;fill-rule:evenodd;stroke:#000000;stroke-width:0.29746616px;stroke-linecap:butt;stroke-linejoin:miter;stroke-opacity:1"
         d="m 171.88352,250.81975 -1.57836,-12.6269 c -7.93228,-6.94181 -9.11769,-8.43617 -12.18475,-13.07049 -5.14411,-7.38531 -13.10959,-12.27284 -20.77148,-13.95109 l 15.53109,15.27855 c 8.20575,8.77702 -6.23543,15.74257 -11.74302,5.3033 0.10182,3.32411 6.56876,14.09821 16.41783,13.81695 7.53895,0.16546 8.61169,1.89999 14.32869,5.24968 z"
         id="path4286"
         inkscape:connector-curvature="0"
         sodipodi:nodetypes="cccccccc" />
      <path
         sodipodi:nodetypes="ccccc"
         inkscape:connector-curvature="0"
         id="path4157"
         d="m 210.15624,325.75 c -2.85871,1.34429 -4.25046,3.29629 -4.96875,5.8125 2.69162,5.16479 8.61765,11.15006 12.82636,16.09781 2.62807,-2.43696 4.25516,-5.71489 4.23614,-7.47281 -4.15043,-3.30298 -8.26985,-8.96232 -12.09375,-14.4375 z"
         style="fill:#000000;fill-opacity:1;fill-rule:evenodd;stroke:#000000;stroke-width:0.29746616px;stroke-linecap:butt;stroke-linejoin:miter;stroke-opacity:1" />
      <path
         style="fill:#000000;fill-opacity:1;fill-rule:evenodd;stroke:#000000;stroke-width:0.29746616px;stroke-linecap:butt;stroke-linejoin:miter;stroke-opacity:1"
         d="m 168.43752,267.95508 c 0,0 17.47446,16.41562 22.91992,25.3125 -5.04882,12.46111 -14.54075,11.8632 -19.00976,5.6875 -2.40039,-3.89611 -3.1503,-7.32734 -3.06997,-16.7654 0.0678,-7.9613 -0.84019,-14.2346 -0.84019,-14.2346 z m 9.28125,13.875 c -0.22087,-0.0205 -0.44612,-0.0204 -0.67578,0.004 -3.79603,0.2849 -4.6602,4.92387 -4.39563,8.77244 0.23064,3.35493 2.17686,9.23216 7.06505,8.939 4.0376,-0.24215 5.40851,-5.1114 4.81798,-8.83839 -0.6338,-4.00012 -3.23136,-8.71343 -6.81162,-8.87695 z"
         id="path4170"
         inkscape:connector-curvature="0"
         sodipodi:nodetypes="cccscccssscc" />
      <ellipse
         transform="scale(-1,1)"
         style="opacity:1;fill:#000000;fill-opacity:1;stroke:#000000;stroke-width:0;stroke-linecap:butt;stroke-linejoin:miter;stroke-miterlimit:4;stroke-dasharray:none;stroke-opacity:1"
         id="ellipse4172"
         cx="-178.87273"
         cy="291.82294"
         rx="3.7681639"
         ry="4.0544901" />
    </g>
  </g>
</svg>
