<svg id="visual" viewBox="0 0 900 300" width="900" height="300" xmlns="http://www.w3.org/2000/svg" xmlns:xlink="http://www.w3.org/1999/xlink" version="1.1"><path d="M0 230L21.5 219.2C43 208.3 86 186.7 128.8 183.8C171.7 181 214.3 197 257.2 202.3C300 207.7 343 202.3 385.8 203.8C428.7 205.3 471.3 213.7 514.2 220.3C557 227 600 232 642.8 237.3C685.7 242.7 728.3 248.3 771.2 238.8C814 229.3 857 204.7 878.5 192.3L900 180L900 0L878.5 0C857 0 814 0 771.2 0C728.3 0 685.7 0 642.8 0C600 0 557 0 514.2 0C471.3 0 428.7 0 385.8 0C343 0 300 0 257.2 0C214.3 0 171.7 0 128.8 0C86 0 43 0 21.5 0L0 0Z" fill="#ffffff"></path><path d="M0 195L21.5 187.8C43 180.7 86 166.3 128.8 168.7C171.7 171 214.3 190 257.2 193C300 196 343 183 385.8 178.2C428.7 173.3 471.3 176.7 514.2 173.8C557 171 600 162 642.8 152.3C685.7 142.7 728.3 132.3 771.2 130C814 127.7 857 133.3 878.5 136.2L900 139L900 0L878.5 0C857 0 814 0 771.2 0C728.3 0 685.7 0 642.8 0C600 0 557 0 514.2 0C471.3 0 428.7 0 385.8 0C343 0 300 0 257.2 0C214.3 0 171.7 0 128.8 0C86 0 43 0 21.5 0L0 0Z" fill="#ffd4d2"></path><path d="M0 120L21.5 116C43 112 86 104 128.8 111.7C171.7 119.3 214.3 142.7 257.2 152.8C300 163 343 160 385.8 147C428.7 134 471.3 111 514.2 108.2C557 105.3 600 122.7 642.8 127.5C685.7 132.3 728.3 124.7 771.2 117.8C814 111 857 105 878.5 102L900 99L900 0L878.5 0C857 0 814 0 771.2 0C728.3 0 685.7 0 642.8 0C600 0 557 0 514.2 0C471.3 0 428.7 0 385.8 0C343 0 300 0 257.2 0C214.3 0 171.7 0 128.8 0C86 0 43 0 21.5 0L0 0Z" fill="#fea9a6"></path><path d="M0 94L21.5 96.8C43 99.7 86 105.3 128.8 105.3C171.7 105.3 214.3 99.7 257.2 94.5C300 89.3 343 84.7 385.8 79.7C428.7 74.7 471.3 69.3 514.2 70.5C557 71.7 600 79.3 642.8 78.8C685.7 78.3 728.3 69.7 771.2 64.8C814 60 857 59 878.5 58.5L900 58L900 0L878.5 0C857 0 814 0 771.2 0C728.3 0 685.7 0 642.8 0C600 0 557 0 514.2 0C471.3 0 428.7 0 385.8 0C343 0 300 0 257.2 0C214.3 0 171.7 0 128.8 0C86 0 43 0 21.5 0L0 0Z" fill="#f57c7c"></path><path d="M0 61L21.5 57.8C43 54.7 86 48.3 128.8 43.8C171.7 39.3 214.3 36.7 257.2 42.5C300 48.3 343 62.7 385.8 63.7C428.7 64.7 471.3 52.3 514.2 51.7C557 51 600 62 642.8 61.8C685.7 61.7 728.3 50.3 771.2 45C814 39.7 857 40.3 878.5 40.7L900 41L900 0L878.5 0C857 0 814 0 771.2 0C728.3 0 685.7 0 642.8 0C600 0 557 0 514.2 0C471.3 0 428.7 0 385.8 0C343 0 300 0 257.2 0C214.3 0 171.7 0 128.8 0C86 0 43 0 21.5 0L0 0Z" fill="#e84855"></path></svg>