<svg id="visual" viewBox="0 0 900 300" width="900" height="300" xmlns="http://www.w3.org/2000/svg" xmlns:xlink="http://www.w3.org/1999/xlink" version="1.1"><path d="M0 213L21.5 211.8C43 210.7 86 208.3 128.8 208.8C171.7 209.3 214.3 212.7 257.2 206.2C300 199.7 343 183.3 385.8 175.3C428.7 167.3 471.3 167.7 514.2 170C557 172.3 600 176.7 642.8 189.5C685.7 202.3 728.3 223.7 771.2 232.8C814 242 857 239 878.5 237.5L900 236L900 0L878.5 0C857 0 814 0 771.2 0C728.3 0 685.7 0 642.8 0C600 0 557 0 514.2 0C471.3 0 428.7 0 385.8 0C343 0 300 0 257.2 0C214.3 0 171.7 0 128.8 0C86 0 43 0 21.5 0L0 0Z" fill="#ffffff"></path><path d="M0 160L21.5 158.8C43 157.7 86 155.3 128.8 157.5C171.7 159.7 214.3 166.3 257.2 170.2C300 174 343 175 385.8 170.3C428.7 165.7 471.3 155.3 514.2 160.2C557 165 600 185 642.8 183.5C685.7 182 728.3 159 771.2 150.3C814 141.7 857 147.3 878.5 150.2L900 153L900 0L878.5 0C857 0 814 0 771.2 0C728.3 0 685.7 0 642.8 0C600 0 557 0 514.2 0C471.3 0 428.7 0 385.8 0C343 0 300 0 257.2 0C214.3 0 171.7 0 128.8 0C86 0 43 0 21.5 0L0 0Z" fill="#fcfbf7"></path><path d="M0 118L21.5 118.5C43 119 86 120 128.8 123.5C171.7 127 214.3 133 257.2 127.7C300 122.3 343 105.7 385.8 103.2C428.7 100.7 471.3 112.3 514.2 119.7C557 127 600 130 642.8 126.3C685.7 122.7 728.3 112.3 771.2 106.2C814 100 857 98 878.5 97L900 96L900 0L878.5 0C857 0 814 0 771.2 0C728.3 0 685.7 0 642.8 0C600 0 557 0 514.2 0C471.3 0 428.7 0 385.8 0C343 0 300 0 257.2 0C214.3 0 171.7 0 128.8 0C86 0 43 0 21.5 0L0 0Z" fill="#f9f7ef"></path><path d="M0 58L21.5 58.5C43 59 86 60 128.8 67.7C171.7 75.3 214.3 89.7 257.2 91C300 92.3 343 80.7 385.8 78C428.7 75.3 471.3 81.7 514.2 83C557 84.3 600 80.7 642.8 77.7C685.7 74.7 728.3 72.3 771.2 74.2C814 76 857 82 878.5 85L900 88L900 0L878.5 0C857 0 814 0 771.2 0C728.3 0 685.7 0 642.8 0C600 0 557 0 514.2 0C471.3 0 428.7 0 385.8 0C343 0 300 0 257.2 0C214.3 0 171.7 0 128.8 0C86 0 43 0 21.5 0L0 0Z" fill="#f6f3e7"></path><path d="M0 31L21.5 37C43 43 86 55 128.8 58.8C171.7 62.7 214.3 58.3 257.2 58.7C300 59 343 64 385.8 67C428.7 70 471.3 71 514.2 64.3C557 57.7 600 43.3 642.8 37.2C685.7 31 728.3 33 771.2 40.2C814 47.3 857 59.7 878.5 65.8L900 72L900 0L878.5 0C857 0 814 0 771.2 0C728.3 0 685.7 0 642.8 0C600 0 557 0 514.2 0C471.3 0 428.7 0 385.8 0C343 0 300 0 257.2 0C214.3 0 171.7 0 128.8 0C86 0 43 0 21.5 0L0 0Z" fill="#f3efe0"></path></svg>