<svg id="visual" viewBox="0 0 900 300" width="900" height="300" xmlns="http://www.w3.org/2000/svg" xmlns:xlink="http://www.w3.org/1999/xlink" version="1.1"><path d="M0 76L21.5 79.2C43 82.3 86 88.7 128.8 86.7C171.7 84.7 214.3 74.3 257.2 66.7C300 59 343 54 385.8 53.8C428.7 53.7 471.3 58.3 514.2 69.8C557 81.3 600 99.7 642.8 97.7C685.7 95.7 728.3 73.3 771.2 66.3C814 59.3 857 67.7 878.5 71.8L900 76L900 301L878.5 301C857 301 814 301 771.2 301C728.3 301 685.7 301 642.8 301C600 301 557 301 514.2 301C471.3 301 428.7 301 385.8 301C343 301 300 301 257.2 301C214.3 301 171.7 301 128.8 301C86 301 43 301 21.5 301L0 301Z" fill="#eaf6f6"></path><path d="M0 111L21.5 112.5C43 114 86 117 128.8 115.2C171.7 113.3 214.3 106.7 257.2 109.8C300 113 343 126 385.8 126.8C428.7 127.7 471.3 116.3 514.2 116.8C557 117.3 600 129.7 642.8 141C685.7 152.3 728.3 162.7 771.2 167.3C814 172 857 171 878.5 170.5L900 170L900 301L878.5 301C857 301 814 301 771.2 301C728.3 301 685.7 301 642.8 301C600 301 557 301 514.2 301C471.3 301 428.7 301 385.8 301C343 301 300 301 257.2 301C214.3 301 171.7 301 128.8 301C86 301 43 301 21.5 301L0 301Z" fill="#e8f5f1"></path><path d="M0 205L21.5 197C43 189 86 173 128.8 169.2C171.7 165.3 214.3 173.7 257.2 174.8C300 176 343 170 385.8 170.2C428.7 170.3 471.3 176.7 514.2 180.2C557 183.7 600 184.3 642.8 183.8C685.7 183.3 728.3 181.7 771.2 184.5C814 187.3 857 194.7 878.5 198.3L900 202L900 301L878.5 301C857 301 814 301 771.2 301C728.3 301 685.7 301 642.8 301C600 301 557 301 514.2 301C471.3 301 428.7 301 385.8 301C343 301 300 301 257.2 301C214.3 301 171.7 301 128.8 301C86 301 43 301 21.5 301L0 301Z" fill="#e9f4eb"></path><path d="M0 199L21.5 198.7C43 198.3 86 197.7 128.8 197C171.7 196.3 214.3 195.7 257.2 200.3C300 205 343 215 385.8 221C428.7 227 471.3 229 514.2 231.3C557 233.7 600 236.3 642.8 232.7C685.7 229 728.3 219 771.2 213.5C814 208 857 207 878.5 206.5L900 206L900 301L878.5 301C857 301 814 301 771.2 301C728.3 301 685.7 301 642.8 301C600 301 557 301 514.2 301C471.3 301 428.7 301 385.8 301C343 301 300 301 257.2 301C214.3 301 171.7 301 128.8 301C86 301 43 301 21.5 301L0 301Z" fill="#edf2e5"></path><path d="M0 263L21.5 259.8C43 256.7 86 250.3 128.8 246.5C171.7 242.7 214.3 241.3 257.2 239C300 236.7 343 233.3 385.8 231.2C428.7 229 471.3 228 514.2 227.8C557 227.7 600 228.3 642.8 228.8C685.7 229.3 728.3 229.7 771.2 232.3C814 235 857 240 878.5 242.5L900 245L900 301L878.5 301C857 301 814 301 771.2 301C728.3 301 685.7 301 642.8 301C600 301 557 301 514.2 301C471.3 301 428.7 301 385.8 301C343 301 300 301 257.2 301C214.3 301 171.7 301 128.8 301C86 301 43 301 21.5 301L0 301Z" fill="#f3efe0"></path></svg>