<svg id="visual" viewBox="0 0 900 300" width="900" height="300" xmlns="http://www.w3.org/2000/svg" xmlns:xlink="http://www.w3.org/1999/xlink" version="1.1"><path d="M0 204L21.5 205.7C43 207.3 86 210.7 128.8 216.3C171.7 222 214.3 230 257.2 226.8C300 223.7 343 209.3 385.8 201C428.7 192.7 471.3 190.3 514.2 187.5C557 184.7 600 181.3 642.8 187C685.7 192.7 728.3 207.3 771.2 212.2C814 217 857 212 878.5 209.5L900 207L900 0L878.5 0C857 0 814 0 771.2 0C728.3 0 685.7 0 642.8 0C600 0 557 0 514.2 0C471.3 0 428.7 0 385.8 0C343 0 300 0 257.2 0C214.3 0 171.7 0 128.8 0C86 0 43 0 21.5 0L0 0Z" fill="#ffffff"></path><path d="M0 177L21.5 173C43 169 86 161 128.8 157.8C171.7 154.7 214.3 156.3 257.2 157.8C300 159.3 343 160.7 385.8 155.2C428.7 149.7 471.3 137.3 514.2 142.8C557 148.3 600 171.7 642.8 172.3C685.7 173 728.3 151 771.2 145C814 139 857 149 878.5 154L900 159L900 0L878.5 0C857 0 814 0 771.2 0C728.3 0 685.7 0 642.8 0C600 0 557 0 514.2 0C471.3 0 428.7 0 385.8 0C343 0 300 0 257.2 0C214.3 0 171.7 0 128.8 0C86 0 43 0 21.5 0L0 0Z" fill="#ffd4d2"></path><path d="M0 144L21.5 137C43 130 86 116 128.8 108.2C171.7 100.3 214.3 98.7 257.2 106.8C300 115 343 133 385.8 132.3C428.7 131.7 471.3 112.3 514.2 108.2C557 104 600 115 642.8 116.8C685.7 118.7 728.3 111.3 771.2 106C814 100.7 857 97.3 878.5 95.7L900 94L900 0L878.5 0C857 0 814 0 771.2 0C728.3 0 685.7 0 642.8 0C600 0 557 0 514.2 0C471.3 0 428.7 0 385.8 0C343 0 300 0 257.2 0C214.3 0 171.7 0 128.8 0C86 0 43 0 21.5 0L0 0Z" fill="#fea9a6"></path><path d="M0 91L21.5 91.3C43 91.7 86 92.3 128.8 86.8C171.7 81.3 214.3 69.7 257.2 70.2C300 70.7 343 83.3 385.8 85.2C428.7 87 471.3 78 514.2 80.5C557 83 600 97 642.8 97.5C685.7 98 728.3 85 771.2 76.8C814 68.7 857 65.3 878.5 63.7L900 62L900 0L878.5 0C857 0 814 0 771.2 0C728.3 0 685.7 0 642.8 0C600 0 557 0 514.2 0C471.3 0 428.7 0 385.8 0C343 0 300 0 257.2 0C214.3 0 171.7 0 128.8 0C86 0 43 0 21.5 0L0 0Z" fill="#f57c7c"></path><path d="M0 32L21.5 30.8C43 29.7 86 27.3 128.8 29.5C171.7 31.7 214.3 38.3 257.2 42.5C300 46.7 343 48.3 385.8 51.8C428.7 55.3 471.3 60.7 514.2 61.8C557 63 600 60 642.8 57.2C685.7 54.3 728.3 51.7 771.2 50.5C814 49.3 857 49.7 878.5 49.8L900 50L900 0L878.5 0C857 0 814 0 771.2 0C728.3 0 685.7 0 642.8 0C600 0 557 0 514.2 0C471.3 0 428.7 0 385.8 0C343 0 300 0 257.2 0C214.3 0 171.7 0 128.8 0C86 0 43 0 21.5 0L0 0Z" fill="#e84855"></path></svg>