<svg id="visual" viewBox="0 0 900 300" width="900" height="300" xmlns="http://www.w3.org/2000/svg" xmlns:xlink="http://www.w3.org/1999/xlink" version="1.1"><path d="M0 112L21.5 117C43 122 86 132 128.8 129.5C171.7 127 214.3 112 257.2 102C300 92 343 87 385.8 94.5C428.7 102 471.3 122 514.2 126C557 130 600 118 642.8 109C685.7 100 728.3 94 771.2 97C814 100 857 112 878.5 118L900 124L900 301L878.5 301C857 301 814 301 771.2 301C728.3 301 685.7 301 642.8 301C600 301 557 301 514.2 301C471.3 301 428.7 301 385.8 301C343 301 300 301 257.2 301C214.3 301 171.7 301 128.8 301C86 301 43 301 21.5 301L0 301Z" fill="#ffffff"></path><path d="M0 180L21.5 178.7C43 177.3 86 174.7 128.8 168.3C171.7 162 214.3 152 257.2 145.2C300 138.3 343 134.7 385.8 136.5C428.7 138.3 471.3 145.7 514.2 152.8C557 160 600 167 642.8 160.8C685.7 154.7 728.3 135.3 771.2 128.2C814 121 857 126 878.5 128.5L900 131L900 301L878.5 301C857 301 814 301 771.2 301C728.3 301 685.7 301 642.8 301C600 301 557 301 514.2 301C471.3 301 428.7 301 385.8 301C343 301 300 301 257.2 301C214.3 301 171.7 301 128.8 301C86 301 43 301 21.5 301L0 301Z" fill="#fcfbf7"></path><path d="M0 173L21.5 178.7C43 184.3 86 195.7 128.8 198.7C171.7 201.7 214.3 196.3 257.2 189.8C300 183.3 343 175.7 385.8 171C428.7 166.3 471.3 164.7 514.2 169.3C557 174 600 185 642.8 193C685.7 201 728.3 206 771.2 208.2C814 210.3 857 209.7 878.5 209.3L900 209L900 301L878.5 301C857 301 814 301 771.2 301C728.3 301 685.7 301 642.8 301C600 301 557 301 514.2 301C471.3 301 428.7 301 385.8 301C343 301 300 301 257.2 301C214.3 301 171.7 301 128.8 301C86 301 43 301 21.5 301L0 301Z" fill="#f9f7ef"></path><path d="M0 235L21.5 230.2C43 225.3 86 215.7 128.8 214.3C171.7 213 214.3 220 257.2 219.7C300 219.3 343 211.7 385.8 204.3C428.7 197 471.3 190 514.2 193.5C557 197 600 211 642.8 214C685.7 217 728.3 209 771.2 207.8C814 206.7 857 212.3 878.5 215.2L900 218L900 301L878.5 301C857 301 814 301 771.2 301C728.3 301 685.7 301 642.8 301C600 301 557 301 514.2 301C471.3 301 428.7 301 385.8 301C343 301 300 301 257.2 301C214.3 301 171.7 301 128.8 301C86 301 43 301 21.5 301L0 301Z" fill="#f6f3e7"></path><path d="M0 260L21.5 260.7C43 261.3 86 262.7 128.8 256.8C171.7 251 214.3 238 257.2 235.3C300 232.7 343 240.3 385.8 240.3C428.7 240.3 471.3 232.7 514.2 229C557 225.3 600 225.7 642.8 228C685.7 230.3 728.3 234.7 771.2 241.3C814 248 857 257 878.5 261.5L900 266L900 301L878.5 301C857 301 814 301 771.2 301C728.3 301 685.7 301 642.8 301C600 301 557 301 514.2 301C471.3 301 428.7 301 385.8 301C343 301 300 301 257.2 301C214.3 301 171.7 301 128.8 301C86 301 43 301 21.5 301L0 301Z" fill="#f3efe0"></path></svg>