<?xml version="1.0" encoding="UTF-8" standalone="no"?>
<!-- Created with Inkscape (http://www.inkscape.org/) -->

<svg
   xmlns:dc="http://purl.org/dc/elements/1.1/"
   xmlns:cc="http://creativecommons.org/ns#"
   xmlns:rdf="http://www.w3.org/1999/02/22-rdf-syntax-ns#"
   xmlns:svg="http://www.w3.org/2000/svg"
   xmlns="http://www.w3.org/2000/svg"
   xmlns:sodipodi="http://sodipodi.sourceforge.net/DTD/sodipodi-0.dtd"
   xmlns:inkscape="http://www.inkscape.org/namespaces/inkscape"
   width="1200"
   height="783"
   viewBox="0 0 1200 783.00002"
   id="svg2"
   version="1.1"
   inkscape:version="0.91 r13725"
   sodipodi:docname="Markarth.svg"
   inkscape:export-filename="C:\Users\user1\OneDrive\Nexus Files\Artist's Resource\Hold Capital Symbol Vectors\Files\PNG\Markarth - No Background.png"
   inkscape:export-xdpi="755.97699"
   inkscape:export-ydpi="755.97699">
  <defs
     id="defs4">
    <filter
       style="color-interpolation-filters:sRGB"
       inkscape:label="Invert"
       id="filter4138">
      <feColorMatrix
         values="-1 0 0 0 1 0 0 -1 0 1 0 -1 0 0 1 0.21 0.72 0.07 1 0 "
         result="color2"
         id="feColorMatrix4140" />
    </filter>
  </defs>
  <sodipodi:namedview
     id="base"
     pagecolor="#ffffff"
     bordercolor="#666666"
     borderopacity="1.0"
     inkscape:pageopacity="0.0"
     inkscape:pageshadow="2"
     inkscape:zoom="0.49497475"
     inkscape:cx="560.10021"
     inkscape:cy="377.01567"
     inkscape:document-units="px"
     inkscape:current-layer="layer1"
     showgrid="false"
     borderlayer="true"
     inkscape:showpageshadow="false"
     units="px"
     showguides="false"
     inkscape:guide-bbox="true"
     inkscape:window-width="1920"
     inkscape:window-height="1027"
     inkscape:window-x="-5"
     inkscape:window-y="-5"
     inkscape:window-maximized="1"
     inkscape:snap-bbox="true"
     inkscape:object-nodes="true"
     inkscape:snap-smooth-nodes="true">
    <sodipodi:guide
       position="210,210"
       orientation="1,0"
       id="guide4147"
       inkscape:label=""
       inkscape:color="rgb(0,0,255)" />
  </sodipodi:namedview>
  <metadata
     id="metadata7">
    <rdf:RDF>
      <cc:Work
         rdf:about="">
        <dc:format>image/svg+xml</dc:format>
        <dc:type
           rdf:resource="http://purl.org/dc/dcmitype/StillImage" />
        <dc:title></dc:title>
      </cc:Work>
    </rdf:RDF>
  </metadata>
  <g
     inkscape:groupmode="layer"
     id="layer1"
     inkscape:label="Background"
     style="display:inline"
     sodipodi:insensitive="true">
    <rect
       style="opacity:1;fill:#cccccc;fill-opacity:0;fill-rule:nonzero;stroke:none;stroke-width:12;stroke-linecap:butt;stroke-linejoin:miter;stroke-miterlimit:4;stroke-dasharray:none;stroke-opacity:1"
       id="rect4138"
       width="1200"
       height="783"
       x="0"
       y="0" />
  </g>
  <g
     inkscape:groupmode="layer"
     id="layer2"
     inkscape:label="Markarth"
     style="display:inline;opacity:1"
     transform="translate(0,363)">
    <path
       style="display:inline;opacity:0;fill:#ffffff;fill-opacity:1;fill-rule:evenodd;stroke:none;stroke-width:1px;stroke-linecap:butt;stroke-linejoin:miter;stroke-opacity:1"
       d="m 310.96553,-362.97336 c -18.28854,0.4349 -39.15699,6.4861 -61.70897,21.0324 -44.13546,-22.6615 -90.21039,-9.4096 -123.4306,38.0152 -26.26935,1.8545 -50.83035,13.5926 -67.77355,34.3137 -12.1723,15.13955 -20.8557,36.99396 -20.194,58.84507 -11.7865,5.10918 -18.6023,12.84814 -23.872,21.40573 -20.5404,31.34881 -15.2081,68.57116 -4.6339,91.98184 -12.1207,40.14387 -10.9774,77.69358 29.5251,107.5347 5.5552,35.80176 42.9194,71.0709 88.47398,61.11035 57.48457,43.13661 95.42882,6.1009 113.37155,-8.68759 49.94844,-5.18583 60.25778,-50.2454 59.33505,-93.57636 -0.48731,-22.88336 6.60847,-44.7957 -25.5749,-74.65736 -11.55872,-10.72484 -28.88219,-19.06634 -47.09835,-18.8684 -8.28008,0.0901 -16.83743,2.05176 -25.34069,6.59951 -20.285,10.84892 -19.49933,31.18651 0.61405,46.63317 19.0601,14.63775 9.76101,35.17373 -5.52646,54.40326 -8.09208,-4.5172 -19.50971,-5.48482 -33.38665,-3.83445 -4.78719,-11.10942 -15.56218,-19.56023 -27.20182,-27.62555 4.51544,-16.05827 7.08662,-27.78915 -3.87422,-42.78608 19.42323,-18.73287 22.76444,-17.25954 22.10583,-49.34132 24.0998,1.12934 36.53284,-6.60875 43.98378,-28.34689 22.18748,21.64487 48.04138,2.0195 56.29014,-9.97837 15.22585,30.03893 41.67058,36.34545 63.63341,20.98811 9.2545,45.55293 38.85549,39.6296 55.4545,40.0906 -1.75769,27.69919 -4.92682,52.80022 34.57678,56.06737 -15.82071,40.7718 -5.09118,60.70569 30.23551,88.13768 l 75.4699,55.41907 c -15.38606,22.41319 -23.75835,51.67923 -18.77621,75.66874 3.5933,17.30223 13.9943,34.49269 35.6559,48.89084 -0.9483,9.25566 -0.0399,18.83698 3.11714,28.62375 l 47.49815,162.30869 c 8.96613,30.63881 26.92105,29.8772 35.88083,-0.72765 l 44.03865,-147.59326 c 4.0023,-13.41352 6.23573,-28.35156 6.26293,-40.56554 28.4891,-27.45414 34.96403,-50.98799 35.50732,-73.46782 0.0259,-12.88452 -2.74347,-25.48939 -10.41987,-37.60391 l 71.76802,-67.39345 c 33.57072,-30.45386 53.72108,-53.15046 26.33456,-91.69714 39.50359,-3.26715 36.33447,-28.36818 34.57678,-56.06737 16.59901,-0.461 46.19999,5.46233 55.45449,-40.0906 21.96283,15.35734 48.40753,9.05082 63.63341,-20.98811 8.24877,11.99787 34.10266,31.62324 56.2901,9.97837 7.451,21.73814 19.884,29.47623 43.9838,28.34689 -0.6586,32.08178 2.6826,30.60845 22.1059,49.34132 -10.9609,14.99693 -8.3897,26.72781 -3.8743,42.78608 -11.6396,8.06532 -22.4146,16.51613 -27.2018,27.62555 -13.8769,-1.65037 -25.2946,-0.68275 -33.3866,3.83445 -15.28748,-19.22953 -24.58658,-39.76551 -5.52649,-54.40326 20.11339,-15.44666 20.89909,-35.78425 0.61405,-46.63317 -8.50326,-4.54775 -17.06062,-6.50948 -25.34069,-6.59951 -18.21616,-0.19794 -35.53964,8.14356 -47.09835,18.8684 -32.18337,29.86166 -25.08759,51.774 -25.5749,74.65736 -0.92273,43.33096 9.38661,88.39053 59.33506,93.57636 17.94273,14.78849 55.88692,51.82424 113.37152,8.68759 45.5546,9.96058 82.9188,-25.30859 88.474,-61.11035 40.5025,-29.84112 41.6458,-67.39083 29.5251,-107.5347 10.5742,-23.41068 15.9065,-60.63303 -4.6339,-91.98184 -5.2697,-8.55759 -12.0855,-16.29655 -23.872,-21.40573 0.6617,-21.85111 -8.0217,-43.70552 -20.194,-58.84507 -16.9432,-20.7211 -41.5041,-32.4592 -67.7735,-34.3137 -33.2203,-47.4248 -79.29523,-60.6767 -123.43066,-38.0152 -60.13867,-38.79 -108.29242,-17.1769 -127.53904,10.2758 -60.28074,-14.5638 -113.21752,-4.5178 -130.14716,56.042 -37.33833,-0.6504 -79.4873,18.44075 -93.05724,52.15703 -13.56993,-33.71628 -55.71891,-52.80743 -93.05723,-52.15703 -16.92964,-60.5598 -69.86642,-70.6058 -130.14716,-56.042 -12.02914,-17.1579 -35.34918,-32.033 -65.83008,-31.3082 z"
       id="path4150-2"
       inkscape:connector-curvature="0"
       sodipodi:nodetypes="scccccccccsscssccccccccccccsccscsccccccccccccccsssssccccccccccccccs" />
    <path
       style="fill:#000000;fill-opacity:1;fill-rule:evenodd;stroke:none;stroke-width:1px;stroke-linecap:butt;stroke-linejoin:miter;stroke-opacity:1"
       d="m 310.96553,-362.97333 c -18.28854,0.43489 -39.15699,6.48612 -61.70897,21.03238 -44.13546,-22.66154 -90.21039,-9.40964 -123.43061,38.01523 -26.26938,1.8545 -50.830357,13.59254 -67.773512,34.31363 -12.17237,15.13958 -20.855739,36.99399 -20.194053,58.8451 -11.786442,5.10918 -18.602326,12.84814 -23.872026,21.40573 -20.5403427,31.34881 -15.2080816,68.57116 -4.6338716,91.981838 -12.1206403,40.143863 -10.9773962,77.693581 29.5250956,107.534693 5.555248,35.801767 42.919454,71.070905 88.473997,61.110358 57.48458,43.136611 95.42883,6.100899 113.37156,-8.687593 49.94844,-5.185829 60.25778,-50.2454 59.33505,-93.57636 -0.48731,-22.88336 6.60847,-44.795701 -25.5749,-74.657356 -11.55872,-10.72484 -28.88219,-19.06634 -47.09835,-18.8684 -8.28008,0.0901 -16.83743,2.05176 -25.34069,6.59951 -20.285,10.84892 -19.49933,31.186507 0.61405,46.633165 19.0601,14.637751 9.76101,35.17373 -5.52646,54.403256 -8.09208,-4.517198 -19.50971,-5.484815 -33.38665,-3.834443 -4.78719,-11.109422 -15.56218,-19.56023 -27.20183,-27.625552 4.51545,-16.058271 7.08663,-27.789154 -3.87422,-42.786085 19.42324,-18.732861 22.76445,-17.259531 22.10584,-49.341311 24.0998,1.12934 36.53284,-6.60875 43.98378,-28.34689 22.18748,21.64487 48.04138,2.0195 56.29014,-9.97837 15.22585,30.03893 41.67058,36.34545 63.63341,20.98811 9.2545,45.55293 38.85549,39.6296 55.4545,40.0906 -1.75769,27.699189 -4.92682,52.800215 34.57678,56.067364 -15.82071,40.771804 -5.09118,60.70569389 30.23551,88.137677 L 514.419,81.90203 c -15.38606,22.41319 -23.75835,51.67923 -18.77621,75.66874 3.5933,17.30223 13.9943,34.49269 35.6559,48.89084 -0.9483,9.25566 -0.0399,18.83698 3.11714,28.62375 l 47.49815,162.30869 c 8.96613,30.63881 26.92105,29.8772 35.88083,-0.72765 l 44.03865,-147.59326 c 4.0023,-13.41352 6.23573,-28.35156 6.26293,-40.56554 28.4891,-27.45414 34.96403,-50.98799 35.50732,-73.46782 0.0259,-12.88452 -2.74347,-25.48939 -10.41987,-37.603913 l 71.76802,-67.393454 c 33.57072,-30.45385846 53.72108,-53.150453 26.33456,-91.697139 39.50359,-3.267149 36.33447,-28.368175 34.57678,-56.067364 16.59901,-0.461 46.19999,5.46233 55.45449,-40.0906 21.96283,15.35734 48.40753,9.05082 63.63341,-20.98811 8.24877,11.99787 34.10266,31.62324 56.2901,9.97837 7.451,21.73814 19.884,29.47623 43.9838,28.34689 -0.6586,32.08178 2.6826,30.60845 22.1059,49.341311 -10.9609,14.996931 -8.3897,26.727814 -3.8743,42.786085 -11.6396,8.065322 -22.4146,16.51613 -27.2018,27.625552 -13.8769,-1.650372 -25.2946,-0.682755 -33.3866,3.834443 -15.28748,-19.229526 -24.58658,-39.765505 -5.52649,-54.403256 20.11339,-15.446658 20.89909,-35.784245 0.61405,-46.633165 -8.50326,-4.54775 -17.06062,-6.50948 -25.34069,-6.59951 -18.21616,-0.19794 -35.53964,8.14356 -47.09835,18.8684 -32.18337,29.861655 -25.08759,51.773996 -25.5749,74.657356 -0.92273,43.33096 9.38661,88.390531 59.33506,93.57636 17.94273,14.788492 55.88692,51.824244 113.37152,8.687593 45.5546,9.960579 82.9188,-25.308591 88.474,-61.110358 40.5025,-29.841112 41.6458,-67.39083 29.5251,-107.534693 10.5742,-23.410678 15.9065,-60.633028 -4.6339,-91.981838 -5.2697,-8.55759 -12.0855,-16.29655 -23.872,-21.40573 0.6617,-21.85111 -8.0217,-43.70552 -20.194,-58.8451 -16.9432,-20.72109 -41.5041,-32.45913 -67.7735,-34.31363 -33.2203,-47.42487 -79.29523,-60.67677 -123.43066,-38.01523 -60.13867,-38.79004 -108.29242,-17.17692 -127.53904,10.27577 -60.28074,-14.56382 -113.21752,-4.51781 -130.14716,56.04203 -37.33833,-0.65042 -79.4873,18.44074 -93.05724,52.15702 -13.56993,-33.71628 -55.71891,-52.80744 -93.05723,-52.15702 -16.92964,-60.55984 -69.86642,-70.60585 -130.14716,-56.04203 -12.02914,-17.1579 -35.34918,-32.03296 -65.83008,-31.30815 z m -1.22812,12.5726 c 28.7096,-0.61174 51.76306,17.64382 62.13946,41.96986 11.70521,27.99558 8.80115,59.75295 4.20338,91.53895 -3.47399,29.16895 -2.29994,57.4007 -2.24095,83.5031 -48.04883,14.14714 -43.45277,-59.82324 -48.91519,-93.89909 -5.73847,-47.96378 -24.46496,-78.25242 -49.11142,-96.7021 l -14.83853,-8.08013 c 17.13523,-12.50917 33.7249,-18.01015 48.76325,-18.33059 z m 580.52519,0 c 15.03834,0.3204 31.62802,5.82145 48.76324,18.33059 l -14.83853,8.08013 c -24.64646,18.44968 -43.37294,48.73835 -49.11141,96.7021 -5.46242,34.07588 -0.86637,108.04623 -48.91519,93.89909 0.059,-26.1024 1.23304,-54.33415 -2.24095,-83.5031 -4.59777,-31.786 -7.50184,-63.54337 4.20338,-91.53895 10.3764,-24.32604 33.42986,-42.5816 62.13946,-41.96986 z m -680.36862,10.86422 c 23.56562,0.54332 41.01066,16.67529 52.10573,29.55541 14.13438,18.12914 23.83292,33.73079 28.89836,66.5709 3.71131,24.06097 12.56546,49.24059 24.5114,71.68981 -25.74347,21.67594 -47.37816,-5.42598 -63.20295,-38.19237 -22.47859,-46.54345 -44.87694,-85.82606 -108.30088,-93.73458 25.62539,-27.30502 47.65952,-36.31178 65.98834,-35.88917 z m 780.21207,0 c 18.32875,-0.42261 40.36295,8.58415 65.98835,35.88917 -63.42397,7.90852 -85.82231,47.19113 -108.30091,93.73458 -15.82482,32.76639 -37.45948,59.86831 -63.20295,38.19237 11.94594,-22.44922 20.80009,-47.62884 24.5114,-71.68981 5.06544,-32.84011 14.76398,-48.44176 28.89836,-66.5709 11.09507,-12.88012 28.54006,-29.01209 52.10575,-29.55541 z m -567.78837,15.66669 c 1.44041,-0.0227 2.85934,-0.013 4.26037,0.0259 60.52492,1.70295 84.07259,60.82792 50.14327,128.55441 -20.02713,39.98237 -40.31622,79.84578 -59.90479,120.044034 -40.33207,3.028193 -26.1808,-42.604794 -14.23713,-75.815304 18.01138,-50.08231 30.89846,-121.63097 -13.3002,-167.5124 11.91256,-3.44154 22.95563,-5.13717 33.03848,-5.29608 z m 355.36465,0 c 10.08284,0.15907 21.12592,1.85454 33.03848,5.29608 -44.19867,45.88143 -31.31158,117.43009 -13.3002,167.5124 11.94367,33.21051 26.09494,78.843494 -14.23713,75.815301 -19.58857,-40.198261 -39.87766,-80.061661 -59.90479,-120.044031 -33.92932,-67.72649 -10.38166,-126.85146 50.14327,-128.55441 1.40103,-0.0395 2.81995,-0.048 4.26037,-0.0259 z m -658.71856,38.38853 c 16.80426,0.48501 34.43124,7.61232 49.88374,21.38674 30.93337,27.57411 54.92835,63.27742 75.7815,77.6249 -19.13024,19.61064 -36.32647,13.83137 -58.89193,-4.47981 -90.826267,-68.89102 -128.416056,-25.1598 -133.261745,-24.73391 5.314451,-47.44405 34.407588,-70.72378 66.488435,-69.79792 z m 962.07243,0 c 32.0809,-0.92586 61.174,22.35387 66.4885,69.79792 -4.8457,-0.42589 -42.4355,-44.15711 -133.2618,24.73391 -22.56544,18.31118 -39.76166,24.09045 -58.8919,4.47981 20.85315,-14.34748 44.8481,-50.05079 75.7815,-77.6249 15.4525,-13.77442 33.0795,-20.90173 49.8837,-21.38674 z m -570.20655,24.58842 c 70.66333,8.28007 88.57469,52.17739 75.71406,94.10665 -10.73446,34.99737 -35.04033,55.49492 -61.14338,77.39505 -61.57001,51.656491 -61.82658,65.001462 17.1574,136.785185 -7.89113,8.332496 -16.43471,16.484349 -22.57606,25.457971 L 450.7687,21.814623 c -61.29403,-45.197968 -13.82939,-94.686618 17.37491,-131.981763 42.10853,-53.07546 59.53728,-106.28043 42.68604,-150.72573 z m 178.34071,0 c -16.85124,44.4453 0.57751,97.65027 42.68604,150.72573 69.32997,81.024906 64.31175,96.292314 -2.61583,153.94785 -23.74256,20.453335 -69.33577,63.488 -69.33577,63.488 l -27.8222,25.97408 c -7.41497,-8.83465 -15.54177,-16.88759 -23.94167,-24.7529 0,0 29.1037,-31.480436 44.35603,-45.64954 78.38336,-72.8165225 73.77959,-111.286299 17.13649,-154.746197 -31.76561,-24.372433 -51.83242,-50.906063 -57.25461,-75.842543 -10.7741,-49.54969 25.00879,-92.77128 76.79152,-93.14448 z m -610.271839,54.44754 c 3.138992,0.0619 6.293976,0.30712 9.444993,0.73397 31.589126,4.47081 65.185776,19.79135 97.969636,30.37799 -5.89022,23.72515 -36.64833,21.94464 -50.06732,20.86788 -45.800682,-3.67506 -88.472458,-3.0812 -116.619065,44.07057 -3.590835,-19.71107 -12.0048133,-42.88101 4.488272,-70.7217 11.735689,-17.2618 32.810547,-25.76137 54.783484,-25.32871 z m 1042.202979,0 c 21.9729,-0.43266 43.0478,8.06691 54.7835,25.32871 16.493,27.84069 8.0791,51.01063 4.4882,70.7217 -28.1466,-47.15177 -70.8183,-47.74563 -116.619,-44.07057 -13.419,1.07676 -44.1771,2.85727 -50.0673,-20.86788 32.7838,-10.58664 66.3805,-25.90718 97.9696,-30.37799 3.151,-0.42702 6.306,-0.67216 9.445,-0.73397 z m -980.79787,68.57035 c 1.83295,27.55415 -8.60618,30.56501 -39.55249,50.834593 C 68.273742,-70.284588 34.205352,-50.280884 38.66868,-6.289716 10.134104,-38.962019 12.815484,-66.701541 20.854867,-86.679717 35.577265,-123.26551 99.45187,-127.7346 140.30363,-137.87498 Z m 919.39277,0 c 40.8517,10.14038 104.7263,14.60947 119.4487,51.195263 8.0394,19.978176 10.7208,47.717698 -17.8138,80.390001 4.4634,-43.991168 -29.605,-63.994872 -62.0824,-80.750671 -30.9463,-20.269583 -41.3855,-23.280443 -39.5525,-50.834593 z m -833.41929,28.41651 c 12.09374,-0.4171 30.75287,7.87461 42.1796,17.558616 9.86987,8.364568 22.25088,29.257847 16.04765,55.175199 -15.59469,26.158867 -41.63742,32.8193175 -74.57873,26.613163 4.3119,0.4460015 35.19046,-44.976085 7.21035,-67.73514 -23.81937,-19.37476 -12.23263,-28.658678 6.81787,-31.409358 0.74385,-0.10756 1.51702,-0.17332 2.32326,-0.20248 z m 747.44579,0 c 0.80624,0.0292 1.57939,0.0949 2.32324,0.20248 19.05051,2.75068 30.63726,12.034598 6.81789,31.409358 -27.98011,22.759055 2.89845,68.1811415 7.21035,67.73514 -32.94131,6.2061545 -58.98404,-0.454296 -74.57874,-26.613163 -6.20322,-25.917352 6.17779,-46.810631 16.04766,-55.175199 11.42673,-9.684006 30.08586,-17.975716 42.1796,-17.558616 z m -852.10035,24.461845 c 6.91,7.561882 5.57794,22.837746 -0.29119,33.535377 -8.59829,15.67204 -16.48718,31.915165 -18.73805,47.8670136 C 99.054755,21.483369 103.3473,49.124698 120.59704,61.856729 80.371665,55.280023 42.287927,27.669989 54.209883,-11.611092 63.612278,-42.590615 97.942247,-67.096713 121.62255,-84.996625 Z m 956.75495,0 c 23.6803,17.899912 58.0102,42.40601 67.4126,73.385533 11.922,39.281081 -26.1617,66.891115 -66.3871,73.467821 17.2497,-12.732031 21.5423,-40.37336 18.0037,-65.4509634 -2.2509,-15.9518486 -10.1398,-32.1949736 -18.7381,-47.8670136 -5.8691,-10.697631 -7.2013,-25.973495 -0.291,-33.535377 z m -417.14742,6.373612 c 11.90523,11.029824 22.54459,20.535136 30.14992,32.639421 -17.93788,24.154758 -36.97616,48.3519885 -59.54428,70.964061 l -22.719,-27.3363168 c 20.36856,-25.2865932 37.14272,-50.2098282 52.11336,-76.2671652 z m -124.02788,4.528538 c 36.18064,42.062963 70.20678,85.766904 103.88225,129.819917 l -9.00185,8.181366 -16.98455,16.565211 C 577.57219,38.48185 540.01895,-3.4838273 502.47351,-45.456502 c 10.66911,-10.090003 21.39144,-20.148096 34.72869,-28.637973 z m -409.19858,39.198437 c 14.29469,7.994245 25.51461,18.577257 28.32231,32.3395266 4.17149,20.4470174 13.35091,58.1472164 63.12699,67.3048824 C 178.915,84.327325 148.83837,75.668435 133.0363,52.631322 118.74521,31.797005 123.36449,-8.0288868 128.00362,-34.896038 Z m 943.99278,0 c 4.6391,26.8671512 9.2584,66.693043 -5.0327,87.52736 -15.802,23.037113 -45.8787,31.696003 -86.4166,12.117049 49.7761,-9.157666 58.9555,-46.857865 63.127,-67.3048824 2.8077,-13.7622696 14.0276,-24.3452816 28.3223,-32.3395266 z m -785.69422,21.544901 c 2.97375,35.669071 -35.37391,85.352716 -82.82725,56.851974 -12.62747,-7.584105 -24.64837,-23.649504 -35.2478,-50.6320831 11.97495,-2.3405461 22.88947,0.5107624 34.8743,8.2446366 36.38714,23.4808475 61.79741,8.7199897 83.20075,-14.4645275 z m 627.39565,0 c 21.40334,23.1845172 46.81361,37.945375 83.20075,14.4645275 11.98482,-7.7338742 22.89932,-10.5851827 34.87432,-8.2446366 C 1021.1734,19.851333 1009.1525,35.916732 996.52507,43.500837 949.07174,72.001579 910.72408,22.317934 913.69783,-13.351137 Z M 565.27131,44.215859 c 7.69997,7.977333 14.61259,16.60846 21.58673,25.208485 -9.96701,9.19003 -17.55525,15.922368 -27.24184,27.21888 -14.3492,16.734056 -22.56902,32.984016 -10.70239,65.196516 -7.21386,10.17207 -11.15785,20.95697 -14.03284,31.94219 -15.56261,-11.41366 -23.27428,-25.97576 -26.13377,-41.56063 -4.63382,-25.2552 6.93624,-52.96634 18.64532,-69.344687 11.00169,-15.388864 23.71806,-26.710677 37.87879,-38.660754 z m 8.90057,53.030198 c 25.245,15.096453 41.16644,35.399113 58.11329,58.497093 0.30694,12.18735 -5.73795,19.91232 -14.12317,25.56281 -22.93324,-17.43658 -42.33469,-38.5935 -62.41165,-59.11085 6.24809,-8.23864 12.3882,-16.55309 18.42153,-24.949053 z m 107.14873,7.997873 c 11.66283,17.66018 13.91097,48.23351 -0.57051,70.92697 -22.69154,32.6181 -41.8197,38.92106 -80.7501,41.73925 -14.27667,1.03348 -11.20215,-6.17265 -4.95673,-25.35401 32.27088,11.08918 59.33493,-25.12214 55.6571,-59.31335 l 17.59859,-16.71706 z m -110.63047,47.43041 c 6.27437,7.17008 12.49749,14.38172 18.62409,21.67779 -9.65608,12.75979 -17.66885,33.9702 -16.91544,53.07212 1.29414,32.8118 40.14891,39.02126 48.59052,13.60994 4.27758,-12.87655 7.27557,-15.03189 16.02186,-17.32378 4.64185,-1.21635 10.2791,-4.45836 16.34797,-7.8377 -0.44939,10.82608 -1.79963,17.44727 -4.60539,27.27528 l -42.66387,149.44355 c -4.25767,17.10519 -8.41889,17.03632 -12.48362,0.20248 l -44.603,-157.18021 c -9.69971,-34.18159 8.88686,-63.72964 21.68688,-82.93947 z"
       id="path4150"
       inkscape:connector-curvature="0"
       sodipodi:nodetypes="scccccccccsscssccccccccccccsccscsccccccccccccccsssssccccccccccccccssccccccssccccccsscscscsscscscscsccscccssccscsscccsscccsscccssccsccccscccsssccscccsccsccsccssccsscccsccsccccsccsccsscsccscssccccccccccccccccccsccccsccccsccccccccsccssccccccccsccccccsssccccsc" />
  </g>
</svg>
