<?xml version="1.0" encoding="UTF-8" standalone="no"?>
<!-- Created with Inkscape (http://www.inkscape.org/) -->

<svg
   xmlns:dc="http://purl.org/dc/elements/1.1/"
   xmlns:cc="http://creativecommons.org/ns#"
   xmlns:rdf="http://www.w3.org/1999/02/22-rdf-syntax-ns#"
   xmlns:svg="http://www.w3.org/2000/svg"
   xmlns="http://www.w3.org/2000/svg"
   xmlns:sodipodi="http://sodipodi.sourceforge.net/DTD/sodipodi-0.dtd"
   xmlns:inkscape="http://www.inkscape.org/namespaces/inkscape"
   width="1200"
   height="1000"
   viewBox="0 0 1200 1000"
   id="svg4332"
   version="1.1"
   inkscape:version="0.91 r13725"
   sodipodi:docname="Riften.svg"
   inkscape:export-filename="C:\Users\user1\OneDrive\Nexus Files\Artist's Resource\Hold Emblems\Final Product\v1.0 - Artist's Resource - Riften.png"
   inkscape:export-xdpi="756"
   inkscape:export-ydpi="756">
  <defs
     id="defs4334" />
  <sodipodi:namedview
     id="base"
     pagecolor="#ffffff"
     bordercolor="#666666"
     borderopacity="1.0"
     inkscape:pageopacity="0.0"
     inkscape:pageshadow="2"
     inkscape:zoom="0.49497475"
     inkscape:cx="403.80214"
     inkscape:cy="390.43873"
     inkscape:document-units="px"
     inkscape:current-layer="layer1"
     showgrid="false"
     inkscape:showpageshadow="false"
     borderlayer="true"
     units="px"
     inkscape:window-width="1920"
     inkscape:window-height="1027"
     inkscape:window-x="-5"
     inkscape:window-y="-5"
     inkscape:window-maximized="1" />
  <metadata
     id="metadata4337">
    <rdf:RDF>
      <cc:Work
         rdf:about="">
        <dc:format>image/svg+xml</dc:format>
        <dc:type
           rdf:resource="http://purl.org/dc/dcmitype/StillImage" />
        <dc:title></dc:title>
      </cc:Work>
    </rdf:RDF>
  </metadata>
  <g
     inkscape:groupmode="layer"
     id="layer2"
     inkscape:label="Background"
     sodipodi:insensitive="true">
    <rect
       style="opacity:1;fill:#cccccc;fill-opacity:0;fill-rule:nonzero;stroke:none;stroke-width:10;stroke-linecap:round;stroke-linejoin:round;stroke-miterlimit:4;stroke-dasharray:none;stroke-opacity:1"
       id="rect4148"
       width="1200"
       height="1000"
       x="0"
       y="0" />
  </g>
  <g
     inkscape:label="Riften"
     inkscape:groupmode="layer"
     id="layer1"
     transform="translate(0,-52.362161)">
    <g
       id="g4179"
       style="fill:#ffffff;fill-opacity:1"
       transform="translate(1751.4285,151.42857)">
      <path
         sodipodi:nodetypes="ccccccccccccccccccccccccccccccccc"
         inkscape:connector-curvature="0"
         id="path4266-6"
         d="m -1550.6788,-99.066404 c 20.3889,47.502193 110.7074,203.065424 166.1109,300.038924 47.255,23.80258 99.4027,61.68374 149.9431,104.15445 2.9869,-3.07424 8.2318,-1.79176 11.2242,-4.9138 l 28.9384,-30.1059 c 4.0798,-4.45085 4.635,-12.67185 8.6806,-17.18128 77.7611,32.47347 22.8547,-18.43493 32.5143,-29.54644 2.8304,-3.34296 2.1395,-10.46599 4.9273,-13.82239 -41.5813,-48.05599 -78.2779,-96.91418 -106.1634,-145.316967 z m 490.7693,403.111444 -42.2415,28.61713 c -3.8996,3.60755 -8.8591,11.71158 -12.7424,15.36837 l -31.8391,36.6495 c 39.8838,38.62367 75.6983,76.5809 103.0191,107.84572 39.9395,50.88114 53.53092,69.80206 85.0242,123.94022 -39.13317,2.27642 -72.5883,-8.36622 -99.6198,-24.40338 l -42.6507,-0.6547 2.9056,45.469 c 61.9833,44.02875 128.25638,58.70276 219.2477,24.7751 6.54509,9.31849 19.93364,14.68954 29.81443,14.01551 l 169.96341,225.26608 118.4574,-7.55225 9.1426,-115.40503 -228.34583,-179.42228 c -3.18015,-13.65628 -6.70709,-19.64224 -11.50794,-27.7976 50.8967,-92.44278 5.14636,-189.10501 -23.06542,-214.19231 l -45.98929,0.1202 -0.97022,45.01647 c 20.30515,24.47036 30.73541,58.13325 25.40956,88.68932 -36.12039,-23.8545 -81.30701,-55.36784 -128.70481,-95.60515 -32.06737,-29.24303 -64.19829,-59.63494 -95.30699,-90.74003 z"
         style="color:#000000;font-style:normal;font-variant:normal;font-weight:normal;font-stretch:normal;font-size:medium;line-height:normal;font-family:sans-serif;text-indent:0;text-align:start;text-decoration:none;text-decoration-line:none;text-decoration-style:solid;text-decoration-color:#000000;letter-spacing:normal;word-spacing:normal;text-transform:none;direction:ltr;block-progression:tb;writing-mode:lr-tb;baseline-shift:baseline;text-anchor:start;white-space:normal;clip-rule:nonzero;display:inline;overflow:visible;visibility:visible;opacity:1;isolation:auto;mix-blend-mode:normal;color-interpolation:sRGB;color-interpolation-filters:linearRGB;solid-color:#000000;solid-opacity:1;fill:#ffffff;fill-opacity:0;fill-rule:evenodd;stroke:none;stroke-width:3;stroke-linecap:butt;stroke-linejoin:miter;stroke-miterlimit:4;stroke-dasharray:none;stroke-dashoffset:0;stroke-opacity:1;color-rendering:auto;image-rendering:auto;shape-rendering:auto;text-rendering:auto;enable-background:accumulate" />
      <path
         sodipodi:nodetypes="ccccccccccccccccccccccc"
         inkscape:connector-curvature="0"
         id="path4139-3"
         d="m -749.95459,-98.444335 c -47.57221,20.35897 -203.36471,110.544552 -300.48111,165.866437 -58.7519,116.296398 -202.6022,262.476598 -291.98,340.349878 -50.9561,39.88072 -69.9059,53.45818 -124.1239,84.90512 -4.8571,-35.81643 4.8843,-66.49462 22.327,-98.14681 l 0.8144,-1.49206 0.4957,-38.38348 -49.0769,3.88217 -1.5084,2.01535 c -46.4343,62.08015 -47.7517,144.92289 -18.3053,211.8897 -9.3323,6.53546 -14.7124,19.90162 -14.0374,29.76788 l -225.598,169.71327 7.5633,118.28307 115.5751,9.12914 179.6879,-228.01129 c 13.6764,-3.17547 19.6721,-6.69367 27.8394,-11.48746 92.935,48.26178 180.8965,7.00341 214.5113,-23.03126 l -0.1226,-45.922 -45.0811,-0.96879 c -24.5064,20.27526 -58.2237,30.68829 -88.8248,25.37028 23.8896,-36.06723 55.4494,-81.18732 95.746,-128.51536 102.0835,-111.61355 217.8136,-224.44089 331.03175,-289.47567 z"
         style="color:#000000;font-style:normal;font-variant:normal;font-weight:normal;font-stretch:normal;font-size:medium;line-height:normal;font-family:sans-serif;text-indent:0;text-align:start;text-decoration:none;text-decoration-line:none;text-decoration-style:solid;text-decoration-color:#000000;letter-spacing:normal;word-spacing:normal;text-transform:none;direction:ltr;block-progression:tb;writing-mode:lr-tb;baseline-shift:baseline;text-anchor:start;white-space:normal;clip-rule:nonzero;display:inline;overflow:visible;visibility:visible;opacity:1;isolation:auto;mix-blend-mode:normal;color-interpolation:sRGB;color-interpolation-filters:linearRGB;solid-color:#000000;solid-opacity:1;fill:#ffffff;fill-opacity:0;fill-rule:evenodd;stroke:none;stroke-width:3;stroke-linecap:butt;stroke-linejoin:miter;stroke-miterlimit:4;stroke-dasharray:none;stroke-dashoffset:0;stroke-opacity:1;color-rendering:auto;image-rendering:auto;shape-rendering:auto;text-rendering:auto;enable-background:accumulate" />
    </g>
    <g
       transform="matrix(3.625886,0,0,3.6205498,-163.09235,-130.58162)"
       style="display:inline;opacity:1;fill:#000000;fill-opacity:1"
       id="g4295">
      <path
         sodipodi:nodetypes="ccccccccccscccccccccccccccccccccccccccccccccccccccccscccccccccccccccccccccccccccccccccccccccccccc"
         inkscape:connector-curvature="0"
         id="path4266"
         d="m 100.3457,50.529297 c 5.62317,13.12016 30.53252,56.086903 45.8125,82.871093 13.03269,6.5743 27.41473,17.03712 41.35352,28.76758 0.82376,-0.84911 1.64346,-1.68066 2.46875,-2.54297 -14.17596,-12.44335 -27.90987,-22.52345 -41.01172,-29.05469 -10.81488,-19.19776 -25.40384,-42.466929 -36.60156,-63.644529 14.85418,10.7359 30.71093,37.646769 43.75586,54.554689 18.91699,7.05144 26.98917,15.13393 37.41601,25.80469 1.35589,1.40844 2.71455,2.79308 4.07422,4.16406 1.12517,-1.22933 2.25337,-2.45371 3.36914,-3.69922 -1.51648,-1.53374 -3.01081,-3.05535 -4.55664,-4.60352 C 185.94893,132.65381 175.49115,121.15227 171.17383,107.02734 151.25076,92.471934 127.60209,77.106611 115.74805,63.025391 l 63.60937,35.578125 c 8.63486,14.276074 18.68277,27.450634 29.61719,39.939454 0.78061,-0.92333 1.56512,-1.84445 2.33398,-2.77149 C 199.84071,122.49836 189.71998,109.00367 182.0293,95.634766 Z M 235.69727,161.86914 c -0.82776,0.71634 -1.6526,1.44723 -2.47852,2.17383 20.14499,19.7729 41.80551,38.3999 62.5293,57.83203 -0.41089,1.48057 -1.08002,3.35505 -1.70117,4.37305 l -38.51172,-27.47266 c -9.47045,-6.42678 -19.73353,-15.97085 -30.84766,-27.0293 -1.07549,0.99641 -2.14778,2.00171 -3.21875,3.01172 9.77583,9.68237 19.10664,19.66862 27.32617,31.52539 l 27.99414,38.49414 c -1.22423,0.71953 -2.44468,1.33999 -3.60156,2.10352 -20.11906,-22.78979 -40.06499,-45.24571 -59.41992,-64.7168 -0.67213,0.65912 -1.34583,1.31349 -2.01563,1.97656 10.99972,10.6679 20.87717,21.15173 28.41211,29.78711 11.0151,14.05343 14.76354,19.27941 23.44922,34.23243 -10.79272,0.62875 -20.01947,-2.31076 -27.47461,-6.74024 l -11.76283,-0.18083 0.80134,12.55859 c 17.09466,12.16079 35.37243,16.21377 60.46735,6.84291 1.8051,2.57378 5.49759,4.05727 8.22266,3.8711 l 46.875,62.21875 32.66992,-2.08594 2.52148,-31.875 -62.97656,-49.55664 c -0.87707,-3.77188 -1.84978,-5.42521 -3.17383,-7.67773 14.03704,-25.5328 1.41934,-52.23102 -6.36132,-59.16016 l -12.6836,0.0332 -0.26758,12.4336 c 5.60005,6.75874 8.47666,16.05647 7.00782,24.49609 -9.96181,-6.58864 -22.42404,-15.29266 -35.4961,-26.40625 -8.84401,-8.07696 -17.70555,-16.47124 -26.28515,-25.0625 z m 58.91992,18.00391 7.12109,0.19726 c 12.9157,18.97366 12.87908,35.90701 4.51172,54.78711 l -0.49219,1.11328 c 3.55048,3.20536 6.28884,10.60093 4.19141,16.45703 -1.25312,3.49877 -3.23538,6.35948 -5.96094,8.19922 -1.64881,-2.15692 -2.00791,-4.71444 -2.07617,-7.16406 6.53471,-4.64078 4.14646,-13.03854 -1.94531,-14.24805 -0.76054,-4.43574 -2.14614,-7.631 -3.24805,-10.24609 4.88091,-10.5624 7.37696,-25.39815 -2.125,-40.98437 z m -41.35742,24.19726 c 15.63809,6.28486 28.50503,18.66533 37.17187,25.57031 2.91751,2.32442 5.49007,6.65547 6.49609,10.02344 -0.57536,0.0582 -3.38029,0.0686 -5.23828,0.48242 -1.59913,-5.63279 -7.2109,-10.19841 -11.52734,-7.67578 0.43199,2.95182 0.80477,5.90365 0.18555,8.85547 -10.61634,-11.17834 -19.9021,-22.94557 -27.08789,-37.25586 z m 33.20117,33.80274 c 0.88379,0.0176 1.97575,1.51873 2.34375,3.10351 -4.29356,4.41163 -1.78676,10.29836 2.44336,13.11328 0.0559,2.10574 0.29656,4.32463 1.25976,6.91602 -2.02421,0.43019 -5.11781,-2.14151 -6.31836,-5.08008 -16.46901,7.98432 -40.44346,8.15319 -57.14788,-4.13058 l -0.56166,-6.51228 7.01172,0.12697 c 17.60801,9.87112 35.40509,9.06627 47.58259,-1.22823 1.22755,-1.19054 2.01833,-2.68875 2.22266,-4.43555 0.17836,-1.36089 0.63378,-1.8836 1.16406,-1.87304 z m 13.97265,4.97461 c 2.0058,1.5359 2.93903,4.11723 1.08985,6.64453 -2.8776,0.46113 -6.01384,0.70196 -9.48047,0.6582 -2.28445,-1.70777 -2.30329,-5.22466 -0.75977,-6.51758 z m 13.38477,4.21484 60.03711,46.625 -2.30078,29.07031 -29.85938,1.90821 -45.35937,-62.72657 c -1.16939,-2.15342 -1.75265,-5.55572 -1.82813,-8.63476 1.703,0.18184 2.77376,0.21939 4.58985,-0.23047 0.36172,3.69975 0.79266,7.34699 2.8457,9.76367 l 43.56641,55.7168 20.91015,-1.07227 1.51563,-20.50781 -53.46485,-44.00195 c -0.10495,-2.53343 -0.35336,-3.76684 -0.65234,-5.91016 z"
         style="color:#000000;font-style:normal;font-variant:normal;font-weight:normal;font-stretch:normal;font-size:medium;line-height:normal;font-family:sans-serif;text-indent:0;text-align:start;text-decoration:none;text-decoration-line:none;text-decoration-style:solid;text-decoration-color:#000000;letter-spacing:normal;word-spacing:normal;text-transform:none;direction:ltr;block-progression:tb;writing-mode:lr-tb;baseline-shift:baseline;text-anchor:start;white-space:normal;clip-rule:nonzero;display:inline;overflow:visible;visibility:visible;opacity:1;isolation:auto;mix-blend-mode:normal;color-interpolation:sRGB;color-interpolation-filters:linearRGB;solid-color:#000000;solid-opacity:1;fill:#000000;fill-opacity:1;fill-rule:evenodd;stroke:none;stroke-width:3;stroke-linecap:butt;stroke-linejoin:miter;stroke-miterlimit:4;stroke-dasharray:none;stroke-dashoffset:0;stroke-opacity:1;color-rendering:auto;image-rendering:auto;shape-rendering:auto;text-rendering:auto;enable-background:accumulate" />
      <path
         sodipodi:nodetypes="ccccccccccccccccccccccccccccccccccccscccccccccccccscccccccccccccccccccccccccccsccccccc"
         inkscape:connector-curvature="0"
         id="path4139"
         d="m 321.18117,50.701113 c -13.12016,5.623171 -56.0869,30.532532 -82.87109,45.8125 -16.20345,32.121197 -55.87659,72.496337 -80.52651,94.005027 -14.05343,11.0151 -19.27969,14.76521 -34.23271,23.45089 -1.33957,-9.89254 1.34706,-18.36589 6.15765,-27.10826 l 0.22461,-0.41211 0.13672,-10.60156 -13.53515,1.07226 -0.41602,0.55664 c -12.80631,17.14661 -13.16966,40.02787 -5.0485,58.52418 -2.57378,1.8051 -4.05759,5.49685 -3.87142,8.22192 l -62.21875,46.875 2.085937,32.66992 31.875,2.52148 49.556963,-62.97698 c 3.77188,-0.87707 5.42544,-1.8488 7.67796,-3.17285 25.63096,13.32996 49.89028,1.93435 59.16105,-6.36126 l -0.0338,-12.68371 -12.43313,-0.26758 c -6.75874,5.60005 -16.05779,8.47614 -24.49741,7.0073 6.58864,-9.96181 15.29266,-22.42403 26.40625,-35.49609 28.15407,-30.82779 60.07181,-61.99083 91.29678,-79.95351 z m -16.39648,12.021484 c -10.7359,14.854187 -37.64599,30.711127 -54.55391,43.756063 -7.05144,18.91699 -15.13471,26.98897 -25.80547,37.41581 -20.17268,19.41987 -36.11204,39.39047 -58.99805,55.25586 l -38.49414,27.99414 c -0.71953,-1.22423 -1.33998,-2.44468 -2.10351,-3.60156 49.45796,-43.662 97.53074,-86.54596 116.31054,-124.21875 19.19776,-10.814888 42.46694,-25.403843 63.64454,-36.601563 z m 3.90044,3.380324 -35.57827,63.610109 c -48.41592,29.28427 -84.21218,74.73638 -123.27083,116.39126 -1.48057,-0.41089 -3.35477,-1.08113 -4.37277,-1.70228 l 27.47182,-38.51145 c 11.54441,-17.01173 32.96029,-36.47497 55.6289,-59.10937 10.49267,-10.47685 21.9946,-20.93512 36.11953,-25.25244 14.55541,-19.92307 29.9204,-43.571789 44.00162,-55.425829 z m -182.52544,113.580609 -0.12696,6.07422 c -9.87112,17.60801 -8.7984,35.49438 1.4961,47.67188 1.19054,1.22755 2.68874,2.01833 4.43554,2.22265 3.62905,0.47564 1.30547,2.9193 -1.23018,3.5081 -4.41163,-4.29356 -10.29905,-1.78674 -13.11397,2.44338 -2.10574,0.0559 -4.32469,0.29662 -6.91608,1.25982 -0.43019,-2.02421 2.18658,-5.83333 5.12515,-7.03388 -8.48035,-15.97298 -8.94082,-39.56953 2.72493,-55.65593 z m 41.48046,23.93164 c -6.28486,15.63809 -18.6645,28.50588 -25.56948,37.17272 -2.32441,2.91751 -6.65554,5.48984 -10.02351,6.49586 -0.0582,-0.57536 -0.0691,-3.38062 -0.48289,-5.23861 5.63279,-1.59913 10.19813,-7.21118 7.6755,-11.52762 -2.95182,0.43199 -5.90364,0.80476 -8.85546,0.18554 11.17834,-10.61634 22.94556,-19.9021 37.25585,-27.08789 z m -39.56223,38.02271 0.78488,9.1518 c -1.5359,2.0058 -4.11691,2.93742 -6.64421,1.08824 -0.46113,-2.8776 -0.70177,-6.01242 -0.65801,-9.47905 1.70777,-2.28445 5.22442,-2.30451 6.51734,-0.76099 z m -9.67082,3.22619 c -0.18184,1.703 -0.22071,2.7729 0.22915,4.58899 -3.69975,0.36172 -7.34699,0.79267 -9.76367,2.84571 l -55.716799,43.5664 1.072266,20.91016 20.507812,1.51563 44.001951,-53.46485 c 2.53343,-0.10495 3.76662,-0.35346 5.90994,-0.65244 L 78.022969,324.21088 48.952656,321.9101 47.044453,292.05072 109.7723,246.69197 c 2.15342,-1.16939 5.55576,-1.75242 8.6348,-1.8279 z m 65.31931,0.085 8.11164,0.0238 -0.1979,7.12083 c -18.97366,12.9157 -35.907,12.87908 -54.7871,4.51172 l -1.11245,-0.49302 c -3.20536,3.55048 -10.60193,6.28874 -16.45803,4.19131 -3.49877,-1.25312 -6.35932,-3.235 -8.19906,-5.96056 2.15692,-1.64881 4.71576,-2.00674 7.16538,-2.075 4.64078,6.53471 13.03779,4.1461 14.2473,-1.94567 4.43574,-0.76054 7.63044,-2.1464 10.24553,-3.24831 10.5624,4.88091 25.39846,7.37686 40.98469,-2.1251 z"
         style="color:#000000;font-style:normal;font-variant:normal;font-weight:normal;font-stretch:normal;font-size:medium;line-height:normal;font-family:sans-serif;text-indent:0;text-align:start;text-decoration:none;text-decoration-line:none;text-decoration-style:solid;text-decoration-color:#000000;letter-spacing:normal;word-spacing:normal;text-transform:none;direction:ltr;block-progression:tb;writing-mode:lr-tb;baseline-shift:baseline;text-anchor:start;white-space:normal;clip-rule:nonzero;display:inline;overflow:visible;visibility:visible;opacity:1;isolation:auto;mix-blend-mode:normal;color-interpolation:sRGB;color-interpolation-filters:linearRGB;solid-color:#000000;solid-opacity:1;fill:#000000;fill-opacity:1;fill-rule:evenodd;stroke:none;stroke-width:3;stroke-linecap:butt;stroke-linejoin:miter;stroke-miterlimit:4;stroke-dasharray:none;stroke-dashoffset:0;stroke-opacity:1;color-rendering:auto;image-rendering:auto;shape-rendering:auto;text-rendering:auto;enable-background:accumulate" />
    </g>
  </g>
</svg>
