<svg height="464pt" viewBox="0 0 464 464" width="464pt" xmlns="http://www.w3.org/2000/svg"><path d="m288 0h144c17.671875 0 32 14.328125 32 32v144c0 17.671875-14.328125 32-32 32h-144c-17.671875 0-32-14.328125-32-32v-144c0-17.671875 14.328125-32 32-32zm0 0" fill="#ff9478"/><path d="m32 0h144c17.671875 0 32 14.328125 32 32v144c0 17.671875-14.328125 32-32 32h-144c-17.671875 0-32-14.328125-32-32v-144c0-17.671875 14.328125-32 32-32zm0 0" fill="#78b9eb"/><path d="m288 256h144c17.671875 0 32 14.328125 32 32v144c0 17.671875-14.328125 32-32 32h-144c-17.671875 0-32-14.328125-32-32v-144c0-17.671875 14.328125-32 32-32zm0 0" fill="#ffe477"/><path d="m32 256h144c17.671875 0 32 14.328125 32 32v144c0 17.671875-14.328125 32-32 32h-144c-17.671875 0-32-14.328125-32-32v-144c0-17.671875 14.328125-32 32-32zm0 0" fill="#ffc477"/></svg>