<?xml version="1.0" encoding="UTF-8" standalone="no"?>
<!-- Created with Inkscape (http://www.inkscape.org/) -->

<svg
   xmlns:dc="http://purl.org/dc/elements/1.1/"
   xmlns:cc="http://creativecommons.org/ns#"
   xmlns:rdf="http://www.w3.org/1999/02/22-rdf-syntax-ns#"
   xmlns:svg="http://www.w3.org/2000/svg"
   xmlns="http://www.w3.org/2000/svg"
   xmlns:sodipodi="http://sodipodi.sourceforge.net/DTD/sodipodi-0.dtd"
   xmlns:inkscape="http://www.inkscape.org/namespaces/inkscape"
   width="1095"
   height="1200"
   viewBox="0 0 1095 1200"
   id="svg4185"
   version="1.1"
   inkscape:version="0.91 r13725"
   sodipodi:docname="Solitude.svg"
   inkscape:export-filename="C:\Users\user1\OneDrive\Nexus Files\Artist's Resource\Hold Capital Symbol Vectors\Files\PNG\v1.0 - Artist's Resource - Solitude.png"
   inkscape:export-xdpi="756"
   inkscape:export-ydpi="756">
  <defs
     id="defs4187" />
  <sodipodi:namedview
     id="base"
     pagecolor="#ffffff"
     bordercolor="#666666"
     borderopacity="1.0"
     inkscape:pageopacity="0.0"
     inkscape:pageshadow="2"
     inkscape:zoom="0.49497475"
     inkscape:cx="152.82145"
     inkscape:cy="470.26751"
     inkscape:document-units="px"
     inkscape:current-layer="layer2"
     showgrid="false"
     borderlayer="true"
     inkscape:showpageshadow="false"
     units="px"
     inkscape:window-width="1920"
     inkscape:window-height="1027"
     inkscape:window-x="-5"
     inkscape:window-y="-5"
     inkscape:window-maximized="1" />
  <metadata
     id="metadata4190">
    <rdf:RDF>
      <cc:Work
         rdf:about="">
        <dc:format>image/svg+xml</dc:format>
        <dc:type
           rdf:resource="http://purl.org/dc/dcmitype/StillImage" />
        <dc:title></dc:title>
      </cc:Work>
    </rdf:RDF>
  </metadata>
  <g
     inkscape:groupmode="layer"
     id="layer2"
     inkscape:label="Background"
     style="display:inline"
     sodipodi:insensitive="true">
    <rect
       style="opacity:1;fill:#cccccc;fill-opacity:0;fill-rule:nonzero;stroke:none;stroke-width:12;stroke-linecap:butt;stroke-linejoin:miter;stroke-miterlimit:4;stroke-dasharray:none;stroke-opacity:1"
       id="rect4135"
       width="1095"
       height="1200"
       x="0"
       y="0" />
  </g>
  <g
     inkscape:label="Solitude"
     inkscape:groupmode="layer"
     id="layer1"
     transform="translate(0,147.63784)">
    <path
       inkscape:connector-curvature="0"
       style="display:inline;opacity:1;fill:#ffffff;fill-opacity:0;fill-rule:nonzero;stroke:none;stroke-width:1px;stroke-linecap:butt;stroke-linejoin:miter;stroke-opacity:1"
       d="m 183.4614,-147.63641 c -31.8078,0.3482 -41.4689,35.776 -36.3457,112.822313 4.7,70.68147 21.4511,213.724607 21.4511,213.724607 l 0,0 c -37.0565,47.09676 -65.1088,91.13133 -98.2774,161.6914 -76.5298997,92.56907 -81.854,213.39015 -57.0469,336.91797 55.3007,275.37126 116.244,226.33896 134.7969,219.58976 21.2872,36.1598 47.4448,79.6177 79.2344,67.17 25.0341,32.7784 49.9287,52.55226 74.5234,44.20906 35.2099,42.3396 73.9914,58.6911 104.9219,28.1152 64.2981,-17.4774 107.4446,-40.61906 140.7812,-66.38676 33.3367,25.7677 76.4832,48.90936 140.7813,66.38676 30.9305,30.5759 69.712,14.2244 104.9219,-28.1152 24.5947,8.3432 49.4893,-11.43066 74.5234,-44.20906 31.7896,12.4477 57.9472,-31.0102 79.2344,-67.17 18.5529,6.7492 79.4963,55.7815 134.7969,-219.58976 24.8072,-123.52782 19.483,-244.3489 -57.0469,-336.91797 -33.1686,-70.56007 -61.2209,-114.59464 -98.2774,-161.6914 l 0,0 c 0,0 16.7512,-143.043137 21.4512,-213.724607 7.9971,-120.267413 -20.0294,-139.123113 -112.0841,-81.445313 -30.197,18.920259 -88.7187,59.644533 -88.7187,59.644533 -70.5139,-21.95995 -105.8668,-24.59477 -178.332,-29.21289 l -42.5079,0 c -72.4652,4.61812 -107.8181,7.25294 -178.332,29.21289 0,0 -58.5217,-40.724274 -88.7187,-59.644533 -33.0822,-20.728 -57.895,-31.5723 -75.7383,-31.377 z"
       id="path4142-7-9"
       sodipodi:nodetypes="cscccscccccccccscccssccccscc" />
    <path
       style="display:inline;opacity:1;fill:#000000;fill-opacity:1;fill-rule:nonzero;stroke:none;stroke-width:1px;stroke-linecap:butt;stroke-linejoin:miter;stroke-opacity:1"
       d="M 183.45703 0.001953125 C 151.64929 0.35010005 141.98816 35.777922 147.11133 112.82422 C 151.81135 183.50569 168.5625 326.54883 168.5625 326.54883 L 168.56641 326.54883 C 131.51 373.64559 103.45762 417.68016 70.289062 488.24023 C -6.2408764 580.8093 -11.564975 701.63038 13.242188 825.1582 C 68.542855 1100.5295 129.48618 1051.4972 148.03906 1044.748 C 169.32623 1080.9078 195.48385 1124.3657 227.27344 1111.918 C 252.30754 1144.6964 277.20216 1164.4702 301.79688 1156.127 C 337.00673 1198.4666 375.78827 1214.8181 406.71875 1184.2422 C 471.01688 1166.7648 514.16331 1143.6232 547.5 1117.8555 C 580.83669 1143.6232 623.98311 1166.7648 688.28125 1184.2422 C 719.21173 1214.8181 757.99325 1198.4666 793.20312 1156.127 C 817.79783 1164.4702 842.69246 1144.6964 867.72656 1111.918 C 899.51615 1124.3657 925.67377 1080.9078 946.96094 1044.748 C 965.51382 1051.4972 1026.4572 1100.5295 1081.7578 825.1582 C 1106.565 701.63038 1101.2408 580.8093 1024.7109 488.24023 C 991.54239 417.68016 963.49001 373.64559 926.43359 326.54883 L 926.4375 326.54883 C 926.4375 326.54883 943.18865 183.50569 947.88867 112.82422 C 955.88581 -7.4431713 927.85939 -26.298854 835.80469 31.378906 C 805.60761 50.29917 747.08594 91.023438 747.08594 91.023438 C 676.57204 69.063496 641.21916 66.428673 568.75391 61.810547 L 526.24609 61.810547 C 453.78084 66.428673 418.42796 69.063496 347.91406 91.023438 C 347.91406 91.023438 289.39239 50.29917 259.19531 31.378906 C 226.11315 10.650961 201.3004 -0.19334881 183.45703 0.001953125 z M 193.78906 38.296875 C 204.57708 38.410079 224.27502 50.255142 258.36914 68.853516 C 172.19728 51.322474 207.01 91.846829 255.32227 114.33203 C 289.84215 130.3981 349.45971 147.02571 359.96875 164.92578 C 312.89689 206.70071 283.10623 273.01229 261.13281 322.00781 C 255.08384 336.48371 249.00365 329.52771 243.46289 320.86719 C 207.54257 264.72133 191.81002 201.91516 186.46875 128.5332 C 181.2886 63.026756 178.02196 38.131424 193.78906 38.296875 z M 901.21094 38.296875 C 916.97804 38.131424 913.7114 63.026756 908.53125 128.5332 C 903.18998 201.91516 887.45743 264.72133 851.53711 320.86719 C 845.99635 329.52771 839.91616 336.48371 833.86719 322.00781 C 811.89377 273.01229 782.10311 206.70071 735.03125 164.92578 C 745.54029 147.02571 805.15785 130.3981 839.67773 114.33203 C 887.99 91.846829 922.80272 51.322474 836.63086 68.853516 C 870.72498 50.255142 890.42292 38.410079 901.21094 38.296875 z M 209.96289 348.34766 L 239.20898 374.05664 C 196.69789 431.35465 201.36228 484.90369 198.9082 527.4668 C 228.78932 569.76234 258.74328 615.76588 352.34766 663.79492 C 353.53878 667.11322 367.08262 705.57226 360.12891 711.12891 C 324.04134 684.60285 267.05507 659.24999 233.22461 625.92383 C 135.23029 525.06637 198.64576 362.77011 209.96289 348.34766 z M 885.03711 348.34766 C 896.35424 362.77011 959.76971 525.06637 861.77539 625.92383 C 827.94493 659.24999 770.95866 684.60285 734.87109 711.12891 C 727.91738 705.57226 741.46122 667.11322 742.65234 663.79492 C 836.25672 615.76588 866.21068 569.76234 896.0918 527.4668 C 893.63772 484.90369 898.30211 431.35465 855.79102 374.05664 L 885.03711 348.34766 z M 146.96484 402.52344 C 146.43021 404.3794 145.99126 408.43318 145.73828 414.10938 L 145.73633 414.12695 C 143.99979 453.17609 151.48589 572.13946 203.55664 629.96875 C 241.24613 671.82641 332.08398 718.125 332.08398 718.125 C 339.53439 747.36088 336.51201 774.20202 331.01367 800.47656 C 300.51675 817.43792 286.49636 840.35859 277.13281 864.96289 C 275.58899 846.45462 269.46618 825.27951 271.58008 806.20117 C 274.56379 779.27198 268.51677 760.90949 250.41797 795.59375 C 232.51544 827.95597 219.07674 846.42113 213.84961 795.51758 C 208.85994 746.92626 205.32442 733.1675 191.48242 758.32422 C 179.15654 780.72544 172.44549 775.13145 172.20508 740.87891 C 172.12298 729.17282 173.05692 716.64186 175.38672 705.76172 C 184.77771 661.90561 158.41204 690.3752 153.82227 701.61328 C 143.55216 726.75979 130.82973 716.67557 133.39453 682.26562 C 134.99584 662.76769 137.98609 645.3486 143.72461 627.06445 C 151.65557 594.36722 130.69647 610.06832 120.36328 634.01758 C 112.42749 652.41027 113.28137 664.72007 108.18359 665.04883 L 145.73633 414.12695 L 108.18164 665.04688 C 99.211241 616.05685 92.471204 557.44477 104.59766 502.04297 C 113.4176 460.8968 130.15801 431.66074 146.96484 402.52344 z M 948.03516 402.52344 C 964.84199 431.66074 981.5824 460.8968 990.40234 502.04297 C 1002.5288 557.44477 995.78876 616.05685 986.81836 665.04688 L 949.26367 414.12695 L 986.81641 665.04883 C 981.71863 664.72007 982.57252 652.41027 974.63672 634.01758 C 964.30354 610.06832 943.34443 594.36722 951.27539 627.06445 C 957.01391 645.3486 960.00416 662.76769 961.60547 682.26562 C 964.17027 716.67557 951.44784 726.75979 941.17773 701.61328 C 936.58796 690.3752 910.22229 661.90561 919.61328 705.76172 C 921.94308 716.64186 922.87702 729.17282 922.79492 740.87891 C 922.55451 775.13145 915.84345 780.72544 903.51758 758.32422 C 889.67558 733.1675 886.14006 746.92626 881.15039 795.51758 C 875.92326 846.42113 862.48455 827.95597 844.58203 795.59375 C 826.48323 760.90949 820.43621 779.27198 823.41992 806.20117 C 825.53382 825.27951 819.41101 846.45462 817.86719 864.96289 C 808.50364 840.35859 794.48325 817.43792 763.98633 800.47656 C 758.48799 774.20202 755.46561 747.36088 762.91602 718.125 C 762.91602 718.125 853.75191 671.82641 891.44141 629.96875 C 943.51216 572.13946 951.00021 453.17609 949.26367 414.12695 L 949.26172 414.10938 C 949.00874 408.43318 948.56979 404.3794 948.03516 402.52344 z M 458.52148 402.71875 C 473.60562 402.59956 489.62621 403.77645 506.66406 406.39453 C 504.7843 464.64561 504.75345 527.30131 490.37695 584.8125 C 443.28154 511.17476 368.47244 497.38412 283.67188 495.20898 C 322.9427 441.80093 377.06715 403.36236 458.52148 402.71875 z M 636.47852 402.71875 C 717.93285 403.36236 772.0573 441.80093 811.32812 495.20898 C 726.52755 497.38412 651.71846 511.17476 604.62305 584.8125 C 590.24655 527.30131 590.21569 464.64561 588.33594 406.39453 C 605.37379 403.77645 621.39438 402.59956 636.47852 402.71875 z M 334.20508 510.5918 C 343.26561 510.47269 354.1804 513.85694 359.62305 515.18555 C 347.4699 531.31793 360.92177 547.10869 378.28125 548.86133 C 393.03216 550.35062 407.27494 541.8093 407.8125 529.38477 C 412.04761 531.89715 420.84153 535.83806 424.65039 538.7832 C 426.28446 551.09857 421.86338 558.44498 417.16016 564.67383 C 386.1472 599.58041 336.74582 587.21165 321.80859 550.42773 C 318.18863 538.38129 317.35872 518.94132 328.31836 511.30273 C 330.12183 510.83387 332.11419 510.61928 334.20508 510.5918 z M 760.79492 510.5918 C 762.88581 510.61928 764.87622 510.83387 766.67969 511.30273 C 777.63933 518.94132 776.81137 538.38129 773.19141 550.42773 C 758.25418 587.21165 708.8528 599.58041 677.83984 564.67383 C 673.13661 558.44498 668.71555 551.09857 670.34961 538.7832 C 674.15848 535.83806 682.95239 531.89715 687.1875 529.38477 C 687.72506 541.8093 701.96783 550.35062 716.71875 548.86133 C 734.07823 547.10869 747.5301 531.31793 735.37695 515.18555 C 740.8196 513.85694 751.73439 510.47269 760.79492 510.5918 z M 76.447266 515.70508 C 76.447266 515.70508 73.960477 665.06509 112.1875 758.00977 C 134.89817 813.2281 152.02264 868.01596 165.02539 894.85938 C 171.80751 910.92716 181.89648 932.85547 181.89648 932.85547 C 185.82989 940.7097 172.03487 949.9539 164.38281 944.07422 C 149.78348 904.807 133.79611 858.68973 122.07031 825.98633 C 85.170903 723.07244 102.05187 802.07514 101.45703 829.29492 C 77.141324 841.11024 69.47841 769.88705 58 723.85352 C 42.708074 662.52601 41.397666 696.239 39.476562 733.20508 C 39.202421 777.08083 39.311621 825.18042 57.042969 869.14648 C 67.795573 845.73512 81.450758 837.61853 94.523438 837.82617 C 100.46837 837.92027 110.04124 838.98631 116.25977 843.08008 C 122.8523 861.7507 136.64405 884.2064 130.88867 899.57031 C 123.5422 900.4167 116.904 901.38826 111.6875 904.02539 C 93.47538 913.23213 91.676232 922.24957 94.943359 953.98828 C 96.138 965.5937 98.053269 973.91424 113.88086 982.60742 C 122.97385 998.92781 132.85709 1016.3953 140.91406 1031.2148 C 89.816951 1068.0775 47.096072 933.31624 28.458984 841.26953 C 5.8711369 729.71029 2.6814453 597.06806 76.447266 515.70508 z M 1018.5527 515.70508 C 1092.3185 597.06806 1089.1288 729.71029 1066.541 841.26953 C 1047.9039 933.31624 1005.1831 1068.0775 954.08594 1031.2148 C 962.14291 1016.3953 972.02615 998.92781 981.11914 982.60742 C 996.94673 973.91424 998.86204 965.5937 1000.0566 953.98828 C 1003.3238 922.24957 1001.5246 913.23213 983.3125 904.02539 C 978.096 901.38826 971.4578 900.4167 964.11133 899.57031 C 958.35595 884.2064 972.1477 861.7507 978.74023 843.08008 C 984.95876 838.98631 994.53159 837.92027 1000.4766 837.82617 C 1013.5492 837.61853 1027.2044 845.73512 1037.957 869.14648 C 1055.6884 825.18042 1055.7975 777.08083 1055.5234 733.20508 C 1053.6023 696.239 1052.292 662.52601 1037 723.85352 C 1025.5216 769.88705 1017.8586 841.10829 993.54297 829.29297 C 992.94813 802.07319 1009.8291 723.07244 972.92969 825.98633 C 961.20389 858.68973 945.21652 904.80697 930.61719 944.07422 C 922.96513 949.9539 909.17011 940.7097 913.10352 932.85547 C 913.10352 932.85547 923.19249 910.92716 929.97461 894.85938 C 942.97736 868.01597 960.10182 813.2281 982.8125 758.00977 C 1021.0395 665.06509 1018.5527 515.70508 1018.5527 515.70508 z M 297.55664 522.50586 C 302.12997 522.4705 306.34751 523.05138 309.46875 525.81055 C 314.10245 616.23284 408.75609 603.41973 431.70898 563.99609 L 445.99805 563.46289 C 453.57284 572.12379 462.89116 580.56152 465.50586 592.68164 C 461.6631 630.71481 457.73715 667.00878 457.00586 714.11719 C 464.69499 764.03988 463.56131 816.32864 450.57422 884.75977 C 449.63286 926.51285 442.69375 970.64385 463.61133 999.79688 C 462.1514 950.06178 525.34024 944.28906 533.77539 982.57031 C 536.57861 995.29226 536.25666 1007.8645 520.83398 1018.709 C 510.60093 1026.2111 504.15456 1010.9174 507.72266 1007.5488 C 528.90469 997.95778 520.90378 976.63873 505.33789 972.51172 C 488.16334 967.95825 477.32753 979.78612 475.55664 990.97461 C 473.15921 1006.1218 476.84222 1015.6366 492.63477 1022.916 C 507.36572 1029.7061 522.03372 1032.682 534.94922 1034.8926 L 534.72656 1061.7207 C 452.96494 1059.2607 412.9907 997.63974 403.26953 929.51758 C 398.29796 894.67868 390.53558 859.67008 387.125 829.09766 C 344.3009 776.55935 367.60661 696.28136 420.24219 646.96484 C 451.19881 615.87775 462.50706 593.60399 410.13086 610.75195 C 333.94334 626.11686 267.57185 619.139 283.51172 522.90039 C 288.05343 523.19364 292.98331 522.54122 297.55664 522.50586 z M 797.44336 522.50586 C 802.01669 522.54122 806.94657 523.19364 811.48828 522.90039 C 827.42815 619.139 761.05666 626.11686 684.86914 610.75195 C 632.49294 593.60399 643.80119 615.87775 674.75781 646.96484 C 727.39339 696.28136 750.6991 776.55935 707.875 829.09766 C 704.46442 859.67008 696.70204 894.67868 691.73047 929.51758 C 682.0093 997.63974 642.03506 1059.2607 560.27344 1061.7207 L 560.05078 1034.8926 C 572.96628 1032.682 587.63428 1029.7061 602.36523 1022.916 C 618.15778 1015.6366 621.84079 1006.1218 619.44336 990.97461 C 617.67247 979.78612 606.83666 967.95825 589.66211 972.51172 C 574.09622 976.63873 566.09531 997.95778 587.27734 1007.5488 C 590.84544 1010.9174 584.39907 1026.2111 574.16602 1018.709 C 558.74334 1007.8645 558.42139 995.29226 561.22461 982.57031 C 569.65976 944.28906 632.84859 950.06178 631.38867 999.79688 C 652.30625 970.64385 645.36714 926.51285 644.42578 884.75977 C 631.43869 816.32864 630.30501 764.03988 637.99414 714.11719 C 637.26285 667.00878 633.3369 630.71481 629.49414 592.68164 C 632.10884 580.56152 641.42716 572.12379 649.00195 563.46289 L 663.29102 563.99609 C 686.24391 603.41973 780.89754 616.23284 785.53125 525.81055 C 788.65249 523.05138 792.87003 522.4705 797.44336 522.50586 z M 169.24414 857.59961 C 178.87787 857.32014 191.03308 872.598 205.78711 901.83789 C 224.56965 940.11659 244.26096 977.95474 262.85156 1016.3125 C 256.45855 1018.1186 251.49817 1020.839 246.83398 1023.748 L 231.9668 991.93164 L 206.79297 942.94141 C 188.17974 917.08466 175.49013 892.90317 162.97656 860.29883 C 164.93209 858.55791 167.02097 857.6641 169.24414 857.59961 z M 925.75586 857.59961 C 927.97903 857.6641 930.06791 858.55791 932.02344 860.29883 C 919.50987 892.90317 906.82025 917.08466 888.20703 942.94141 L 863.0332 991.93164 L 848.16602 1023.748 C 843.50183 1020.839 838.54145 1018.1186 832.14844 1016.3125 C 850.73904 977.95474 870.43035 940.11659 889.21289 901.83789 C 903.96692 872.598 916.12213 857.32014 925.75586 857.59961 z M 126.78125 914.79883 C 129.84673 914.89198 133.02206 915.58678 136.25195 916.80273 C 135.81394 946.83338 149.14101 977.6613 162.48828 1005.3984 C 179.03495 1039.7841 203.94304 1070.3398 220.88672 1103.2891 C 192.34956 1108.7146 168.56483 1058.7405 150.10547 1028.2656 C 125.40331 982.27175 106.86993 939.24269 112.64844 919.73047 C 116.87199 916.16066 121.67211 914.64358 126.78125 914.79883 z M 968.21875 914.79883 C 973.32789 914.64358 978.12802 916.16066 982.35156 919.73047 C 988.13008 939.24269 969.59669 982.27175 944.89453 1028.2656 C 926.43517 1058.7405 902.65044 1108.7146 874.11328 1103.2891 C 891.05696 1070.3398 915.96505 1039.7841 932.51172 1005.3984 C 945.85899 977.6613 959.18606 946.83338 958.74805 916.80273 C 961.97794 915.58678 965.15327 914.89198 968.21875 914.79883 z M 256.24023 943.93164 C 270.02475 943.49335 284.42815 958.22241 296.11914 975.95898 C 311.73807 1005.1612 326.2623 1032.4968 343.0918 1061.6855 L 325.63672 1078.041 C 315.38598 1061.4081 307.60377 1045.9206 299.07227 1028.7773 C 293.20082 1017.5502 282.91377 1003.2109 271.54102 998.24805 C 258.88976 981.93307 250.66169 965.15965 244.88086 948.13281 C 248.57034 945.36478 252.38057 944.05436 256.24023 943.93164 z M 838.75977 943.93164 C 842.61943 944.05436 846.42966 945.36478 850.11914 948.13281 C 844.33831 965.15965 836.11024 981.93307 823.45898 998.24805 C 812.08623 1003.2109 801.79918 1017.5502 795.92773 1028.7773 C 787.39623 1045.9206 779.61402 1061.4081 769.36328 1078.041 L 751.9082 1061.6855 C 768.7377 1032.4968 783.25998 1005.1612 798.87891 975.95898 C 810.5699 958.22241 824.97525 943.49335 838.75977 943.93164 z M 196.27734 950.62109 C 211.35892 961.91002 218.9671 992.96532 214.94141 997.96289 C 206.77675 1005.0974 192.64175 1011.7818 181.56055 1016.1152 C 168.11852 1004.4618 162.55393 984.80395 163.32422 965.42188 C 168.97818 962.2871 189.10859 950.78397 196.27734 950.62109 z M 898.72266 950.62109 C 905.8914 950.78397 926.02182 962.2871 931.67578 965.42188 C 932.44607 984.80395 926.88148 1004.4618 913.43945 1016.1152 C 902.35825 1011.7818 888.22325 1005.0974 880.05859 997.96289 C 876.0329 992.96532 883.64108 961.91002 898.72266 950.62109 z M 338.86914 994.67188 C 347.46591 994.96693 359.902 1006.2594 373.24609 1020.2559 C 402.32436 1050.7558 406.18286 1081.6034 407.29102 1121.7422 L 392.4082 1112.8535 C 392.4806 1061.9042 373.2089 1048.8206 344.3418 1038.5742 L 328.17383 1007.8086 C 329.93477 998.27631 333.71108 994.49484 338.86914 994.67188 z M 756.13086 994.67188 C 761.28892 994.49484 765.06523 998.27631 766.82617 1007.8086 L 750.6582 1038.5742 C 721.7911 1048.8206 702.5194 1061.9042 702.5918 1112.8535 L 687.70898 1121.7422 C 688.81714 1081.6034 692.67564 1050.7558 721.75391 1020.2559 C 735.098 1006.2594 747.53409 994.96693 756.13086 994.67188 z M 208.74414 1018.4258 C 211.27157 1018.388 214.07013 1019.187 217.03711 1021.3301 C 223.64054 1062.149 249.48586 1087.9397 262.0957 1102.4121 C 279.34749 1120.9111 287.07206 1135.3729 294.76172 1147.7422 C 259.23743 1151.8328 212.55421 1075.5867 196.03516 1027.6816 C 196.01446 1026.1856 201.16187 1018.5391 208.74414 1018.4258 z M 886.25586 1018.4258 C 893.83813 1018.5391 898.98554 1026.1856 898.96484 1027.6816 C 882.44579 1075.5867 835.76256 1151.8328 800.23828 1147.7422 C 807.92793 1135.3729 815.65252 1120.9111 832.9043 1102.4121 C 845.51415 1087.9397 871.35946 1062.149 877.96289 1021.3301 C 880.92987 1019.187 883.72843 1018.388 886.25586 1018.4258 z M 276.95703 1020.9863 C 289.21694 1031.235 296.2741 1043.9737 296.03516 1059.6992 L 263.96484 1079.2715 C 255.14334 1074.6378 240.03163 1058.4905 243.03906 1038.6973 C 251.76642 1032.5794 259.70072 1026.3492 276.95703 1020.9863 z M 818.04297 1020.9863 C 835.29928 1026.3492 843.23358 1032.5794 851.96094 1038.6973 C 854.96837 1058.4905 839.85666 1074.6378 831.03516 1079.2715 L 798.96484 1059.6992 C 798.7259 1043.9737 805.78306 1031.235 818.04297 1020.9863 z M 444.46094 1053.6113 C 472.94472 1069.5884 503.81239 1084.7184 535.91992 1099.4062 L 536.13086 1109.9629 C 497.2421 1133.2948 459.80396 1157.9062 407.31641 1168.1641 C 395.84369 1161.0899 379.24482 1151.8438 362.9707 1131.168 C 365.86493 1122.9848 371.23701 1118.1763 379.92578 1115.1602 C 391.26981 1129.3726 403.50363 1134.2027 418.16406 1139.4941 C 447.22974 1147.4431 458.28501 1107.3575 417.3125 1088.0684 C 416.44045 1080.7713 415.38128 1073.4784 414.30664 1066.1855 L 444.46094 1053.6113 z M 650.53906 1053.6113 L 680.69336 1066.1855 C 679.61872 1073.4784 678.55955 1080.7713 677.6875 1088.0684 C 636.71498 1107.3575 647.77025 1147.4431 676.83594 1139.4941 C 691.49637 1134.2027 703.73019 1129.3726 715.07422 1115.1602 C 723.76299 1118.1763 729.13507 1122.9848 732.0293 1131.168 C 715.75518 1151.8438 699.15631 1161.0899 687.68359 1168.1641 C 635.19604 1157.9062 597.7579 1133.2948 558.86914 1109.9629 L 559.08008 1099.4062 C 591.18761 1084.7184 622.05528 1069.5884 650.53906 1053.6113 z M 361.32422 1069.373 C 376.33962 1070.0167 379.23508 1090.1863 377.06445 1100.2305 C 367.88853 1111.9266 356.04372 1123.3346 341.63477 1128.5332 C 325.1691 1116.2384 320.23589 1105.8453 324.31445 1096.9395 C 332.02186 1085.6253 341.78155 1078.7651 351.69141 1071.2129 C 355.3481 1069.8045 358.54359 1069.2539 361.32422 1069.373 z M 733.67578 1069.373 C 736.45641 1069.2539 739.6519 1069.8045 743.30859 1071.2129 C 753.21845 1078.7651 762.97814 1085.6253 770.68555 1096.9395 C 774.7641 1105.8453 769.8309 1116.2384 753.36523 1128.5332 C 738.95628 1123.3346 727.11147 1111.9266 717.93555 1100.2305 C 715.76492 1090.1863 718.66038 1070.0167 733.67578 1069.373 z M 292.73242 1080.6895 L 307.06055 1097.5977 C 303.42542 1102.2155 301.2394 1108.3588 307.25195 1118.5371 C 314.04366 1130.0344 327.29973 1142.179 334.75586 1153.0742 C 355.58912 1151.0664 375.79061 1160.795 395.71875 1175.584 C 354.38182 1217.206 305.47105 1145.0959 277.73828 1092.0371 L 292.73242 1080.6895 z M 802.26758 1080.6895 L 817.26172 1092.0391 C 789.52895 1145.0979 740.61819 1217.206 699.28125 1175.584 C 719.2094 1160.795 739.41088 1151.0664 760.24414 1153.0742 C 767.70027 1142.179 780.95635 1130.0344 787.74805 1118.5371 C 793.76061 1108.3588 791.57458 1102.2155 787.93945 1097.5977 L 802.26758 1080.6895 z "
       transform="translate(0,-147.63784)"
       id="path4142-7" />
  </g>
</svg>
