<svg id="Capa_1" enable-background="new 0 0 512 512" height="512" viewBox="0 0 512 512" width="512" xmlns="http://www.w3.org/2000/svg"><g><g><path d="m421.934 177.921c-1.656 0-3.323-.546-4.713-1.667-3.227-2.605-3.732-7.334-1.127-10.561l38.311-47.462c6.211-7.692 15.441-12.103 25.326-12.103h21.981c4.148 0 7.51 3.363 7.51 7.51s-3.362 7.51-7.51 7.51h-21.981c-5.323 0-10.294 2.376-13.638 6.518l-38.311 47.461c-1.482 1.839-3.655 2.794-5.848 2.794z" fill="#66b49d"/></g><g><g><path d="m403.454 168.393c-4.148 0-7.51-3.363-7.51-7.51v-40.753c0-4.148 3.362-7.51 7.51-7.51s7.51 3.363 7.51 7.51v40.753c0 4.147-3.362 7.51-7.51 7.51z" fill="#80cb8e"/></g><g><path d="m87.272 168.393c-4.148 0-7.51-3.363-7.51-7.51v-40.753c0-4.148 3.363-7.51 7.51-7.51s7.51 3.363 7.51 7.51v40.753c0 4.147-3.363 7.51-7.51 7.51z" fill="#80cb8e"/></g></g><g><path d="m471.609 194.708h-452.492c-4.148 0-7.51-3.363-7.51-7.51s3.363-7.51 7.51-7.51h452.492c4.148 0 7.51 3.363 7.51 7.51s-3.362 7.51-7.51 7.51z" fill="#80cb8e"/></g><g><path d="m423.968 156.975h-13.004l-2.12.947-10.844-.947h-331.243c-3.866 0-7 3.134-7 7v53.445h371.211v-53.445c0-3.866-3.134-7-7-7z" fill="#66b49d"/></g><g><path d="m423.959 156.975h-26.798c3.871 0 7.01 3.139 7.01 7.01v53.435h26.798v-53.435c-.001-3.872-3.139-7.01-7.01-7.01z" fill="#57988b"/></g><g><path d="m28.457 156.975h-18.681c-3.866 0-7 3.134-7 7v46.445c0 3.866 3.134 7 7 7h18.681c3.866 0 7-3.134 7-7v-46.445c0-3.866-3.134-7-7-7z" fill="#66b49d"/></g><g><path d="m480.949 156.975h-18.681c-3.866 0-7 3.134-7 7v46.445c0 3.866 3.134 7 7 7h18.681c3.866 0 7-3.134 7-7v-46.445c0-3.866-3.134-7-7-7z" fill="#66b49d"/></g><g><path d="m28.448 156.975h-15.236c3.871 0 7.01 3.139 7.01 7.01v46.426c0 3.871-3.138 7.01-7.01 7.01h15.236c3.871 0 7.01-3.138 7.01-7.01v-46.426c-.001-3.872-3.139-7.01-7.01-7.01z" fill="#57988b"/></g><g><path d="m480.94 156.975h-15.236c3.871 0 7.01 3.139 7.01 7.01v46.426c0 3.871-3.138 7.01-7.01 7.01h15.236c3.871 0 7.01-3.138 7.01-7.01v-46.426c-.001-3.872-3.139-7.01-7.01-7.01z" fill="#57988b"/></g><g><path d="m373.201 223.27h-255.945v-213.27c0-5.523 4.477-10 10-10h235.945c5.523 0 10 4.477 10 10z" fill="#f6f1f1"/></g><g><path d="m363.188 0h-25.334c5.53 0 10.014 4.483 10.014 10.014v213.256h25.334v-213.256c-.001-5.531-4.484-10.014-10.014-10.014z" fill="#e7ecf6"/></g><g><path d="m443.763 248.493v-24.885c0-13.273-10.76-24.033-24.033-24.033h-348.735c-13.273 0-24.033 10.76-24.033 24.033v24.885c0 8.249-1.324 16.446-3.921 24.276l-28.597 86.212c-3.373 10.169-5.092 20.813-5.092 31.527v69.531l3 10.317h466.021l3-10.317v-69.531c0-10.714-1.719-21.358-5.092-31.527l-28.597-86.212c-2.597-7.83-3.921-16.026-3.921-24.276z" fill="#80cb8e"/></g><g><path d="m466.373 512h-442.021c-8.284 0-15-6.716-15-15v-36.962h472.021v36.962c0 8.284-6.715 15-15 15z" fill="#66b49d"/></g><g><path d="m94.782 121.582h301.162v15.021h-301.162z" fill="#66b49d"/></g><g><g><path d="m260.207 246.615h-29.689v-55.171c0-2.761 2.239-5 5-5h19.689c2.761 0 5 2.239 5 5z" fill="#66b49d"/></g><g><path d="m255.2 186.444h-14.465c2.765 0 5.007 2.242 5.007 5.007v55.164h14.465v-55.164c0-2.765-2.241-5.007-5.007-5.007z" fill="#57988b"/></g></g><g><g><path d="m144.18 226.239c-2.686 0-4.023 3.257-2.115 5.148 26.523 26.275 63.013 42.506 103.297 42.506s76.774-16.231 103.297-42.506c1.908-1.89.571-5.148-2.115-5.148h-61.784l-39.041 7.479-39.753-7.479z" fill="#26457d"/></g><g><path d="m346.545 226.239h-28.953c-29.557 26.348-68.515 42.372-111.217 42.409 12.416 3.413 25.487 5.244 38.988 5.244 40.284 0 76.774-16.231 103.297-42.506 1.908-1.889.571-5.147-2.115-5.147z" fill="#21386b"/></g><g><path d="m205.966 226.239c7.175 14.506 22.117 24.486 39.397 24.486s32.222-9.98 39.397-24.486z" fill="#9dc6fb"/></g><g><path d="m266.631 226.239c-5.885 11.897-16.995 20.744-30.333 23.544 2.925.614 5.956.942 9.064.942 17.28 0 32.222-9.98 39.397-24.486z" fill="#89aada"/></g></g><g><path d="m476.281 358.98-28.597-86.212c-2.597-7.83-3.921-16.026-3.921-24.275v-24.885c0-13.273-10.76-24.033-24.033-24.033h-29.522c8.49 3.707 14.426 12.174 14.426 22.03v24.885c0 8.249 1.324 16.446 3.921 24.275l28.597 86.212c3.373 10.169 5.092 20.813 5.092 31.527v81.85h36.129l3-10.317v-69.531c0-10.712-1.719-21.357-5.092-31.526z" fill="#66b49d"/></g><g><path d="m442.245 460.038v37.943c0 6.406-4.017 11.859-9.663 14.019h33.792c8.284 0 15-6.716 15-15v-36.962z" fill="#57988b"/></g><g><circle cx="72.679" cy="362.117" fill="#e7ecf6" r="16.764"/></g><g><circle cx="130.24" cy="362.117" fill="#e7ecf6" r="16.764"/></g><g><circle cx="187.801" cy="362.117" fill="#e7ecf6" r="16.764"/></g><g><circle cx="245.363" cy="362.117" fill="#e7ecf6" r="16.764"/></g><g><circle cx="302.924" cy="362.117" fill="#e7ecf6" r="16.764"/></g><g><circle cx="360.486" cy="362.117" fill="#e7ecf6" r="16.764"/></g><g><circle cx="418.047" cy="362.117" fill="#e7ecf6" r="16.764"/></g><g><circle cx="101.46" cy="313.052" fill="#e7ecf6" r="16.764"/></g><g><circle cx="159.021" cy="313.052" fill="#e7ecf6" r="16.764"/></g><g><circle cx="216.582" cy="313.052" fill="#e7ecf6" r="16.764"/></g><g><circle cx="274.143" cy="313.052" fill="#e7ecf6" r="16.764"/></g><g><circle cx="331.705" cy="313.052" fill="#e7ecf6" r="16.764"/></g><g><circle cx="389.266" cy="313.052" fill="#e7ecf6" r="16.764"/></g><g><path d="m77.337 346.023c.428 1.48.669 3.04.669 4.658 0 9.259-7.506 16.764-16.764 16.764-1.618 0-3.177-.242-4.658-.67 2.02 6.99 8.454 12.106 16.095 12.106 9.259 0 16.764-7.506 16.764-16.764 0-7.64-5.116-14.074-12.106-16.094z" fill="#d5dff4"/></g><g><path d="m134.898 346.023c.428 1.48.669 3.04.669 4.658 0 9.259-7.506 16.764-16.764 16.764-1.618 0-3.177-.242-4.658-.67 2.02 6.99 8.454 12.106 16.095 12.106 9.259 0 16.764-7.506 16.764-16.764 0-7.64-5.116-14.074-12.106-16.094z" fill="#d5dff4"/></g><g><path d="m192.459 346.023c.428 1.48.669 3.04.669 4.658 0 9.259-7.506 16.764-16.764 16.764-1.618 0-3.177-.242-4.658-.67 2.02 6.99 8.454 12.106 16.095 12.106 9.259 0 16.764-7.506 16.764-16.764.001-7.64-5.116-14.074-12.106-16.094z" fill="#d5dff4"/></g><g><path d="m250.021 346.023c.428 1.48.669 3.04.669 4.658 0 9.259-7.506 16.764-16.764 16.764-1.618 0-3.177-.242-4.658-.67 2.02 6.99 8.454 12.106 16.095 12.106 9.259 0 16.764-7.506 16.764-16.764 0-7.64-5.116-14.074-12.106-16.094z" fill="#d5dff4"/></g><g><path d="m307.582 346.023c.428 1.48.669 3.04.669 4.658 0 9.259-7.506 16.764-16.764 16.764-1.618 0-3.177-.242-4.658-.67 2.02 6.99 8.454 12.106 16.095 12.106 9.259 0 16.764-7.506 16.764-16.764 0-7.64-5.116-14.074-12.106-16.094z" fill="#d5dff4"/></g><g><path d="m365.143 346.023c.428 1.48.669 3.04.669 4.658 0 9.259-7.506 16.764-16.764 16.764-1.618 0-3.177-.242-4.658-.67 2.02 6.99 8.454 12.106 16.095 12.106 9.259 0 16.764-7.506 16.764-16.764.001-7.64-5.116-14.074-12.106-16.094z" fill="#d5dff4"/></g><g><path d="m422.705 346.023c.428 1.48.67 3.04.67 4.658 0 9.259-7.506 16.764-16.764 16.764-1.618 0-3.178-.242-4.658-.67 2.02 6.99 8.454 12.106 16.095 12.106 9.259 0 16.764-7.506 16.764-16.764-.001-7.64-5.118-14.075-12.107-16.094z" fill="#d5dff4"/></g><g><path d="m106.117 296.957c.428 1.48.669 3.04.669 4.658 0 9.259-7.506 16.764-16.764 16.764-1.618 0-3.177-.242-4.658-.67 2.02 6.99 8.454 12.106 16.095 12.106 9.259 0 16.764-7.506 16.764-16.764.001-7.64-5.116-14.074-12.106-16.094z" fill="#d5dff4"/></g><g><path d="m163.679 296.957c.428 1.48.669 3.04.669 4.658 0 9.259-7.506 16.764-16.764 16.764-1.618 0-3.177-.242-4.658-.67 2.02 6.99 8.454 12.106 16.095 12.106 9.259 0 16.764-7.506 16.764-16.764 0-7.64-5.116-14.074-12.106-16.094z" fill="#d5dff4"/></g><g><path d="m221.24 296.957c.428 1.48.669 3.04.669 4.658 0 9.259-7.506 16.764-16.764 16.764-1.618 0-3.177-.242-4.658-.67 2.02 6.99 8.454 12.106 16.095 12.106 9.259 0 16.764-7.506 16.764-16.764 0-7.64-5.116-14.074-12.106-16.094z" fill="#d5dff4"/></g><g><path d="m278.801 296.957c.428 1.48.669 3.04.669 4.658 0 9.259-7.506 16.764-16.764 16.764-1.618 0-3.177-.242-4.658-.67 2.02 6.99 8.454 12.106 16.095 12.106 9.259 0 16.764-7.506 16.764-16.764.001-7.64-5.116-14.074-12.106-16.094z" fill="#d5dff4"/></g><g><path d="m336.363 296.957c.428 1.48.669 3.04.669 4.658 0 9.259-7.506 16.764-16.764 16.764-1.618 0-3.177-.242-4.658-.67 2.02 6.99 8.454 12.106 16.095 12.106 9.259 0 16.764-7.506 16.764-16.764 0-7.64-5.116-14.074-12.106-16.094z" fill="#d5dff4"/></g><g><path d="m393.924 296.957c.428 1.48.67 3.04.67 4.658 0 9.259-7.506 16.764-16.764 16.764-1.618 0-3.178-.242-4.658-.67 2.02 6.99 8.454 12.106 16.095 12.106 9.259 0 16.764-7.506 16.764-16.764-.001-7.64-5.117-14.074-12.107-16.094z" fill="#d5dff4"/></g><g><path d="m340.738 435.847h-190.751c-8.828 0-15.984-7.156-15.984-15.984v-.044c0-8.828 7.156-15.984 15.984-15.984h190.751c8.828 0 15.984 7.156 15.984 15.984v.044c0 8.828-7.156 15.984-15.984 15.984z" fill="#e7ecf6"/></g><g><path d="m346.325 404.866c-.219 8.649-7.283 15.598-15.985 15.598h-190.707c-1.976 0-3.861-.375-5.608-1.03-.003.137-.021.27-.021.408 0 8.84 7.166 16.006 16.006 16.006h190.707c8.84 0 16.006-7.166 16.006-16.006-.001-6.864-4.329-12.702-10.398-14.976z" fill="#d5dff4"/></g><g><g><path d="m321.691 54.755h-154.488c-4.148 0-7.51-3.363-7.51-7.51s3.363-7.51 7.51-7.51h154.487c4.148 0 7.51 3.363 7.51 7.51s-3.361 7.51-7.509 7.51z" fill="#9dc6fb"/></g><g><path d="m196.23 92.17h-29.027c-4.148 0-7.51-3.363-7.51-7.51s3.363-7.51 7.51-7.51h29.027c4.148 0 7.51 3.363 7.51 7.51s-3.362 7.51-7.51 7.51z" fill="#9dc6fb"/></g></g></g></svg>