<?xml version="1.0" encoding="UTF-8" standalone="no"?>
<!-- Created with Inkscape (http://www.inkscape.org/) -->

<svg
   xmlns:dc="http://purl.org/dc/elements/1.1/"
   xmlns:cc="http://creativecommons.org/ns#"
   xmlns:rdf="http://www.w3.org/1999/02/22-rdf-syntax-ns#"
   xmlns:svg="http://www.w3.org/2000/svg"
   xmlns="http://www.w3.org/2000/svg"
   xmlns:sodipodi="http://sodipodi.sourceforge.net/DTD/sodipodi-0.dtd"
   xmlns:inkscape="http://www.inkscape.org/namespaces/inkscape"
   width="1200"
   height="865"
   viewBox="0 0 1200 865"
   id="svg4145"
   version="1.1"
   inkscape:version="0.91 r13725"
   sodipodi:docname="Windhelm.svg"
   inkscape:export-filename="C:\Users\user1\OneDrive\Nexus Files\Hold Emblems\Product\v1.0 - Artist's Resource - Eastmarch.png"
   inkscape:export-xdpi="756"
   inkscape:export-ydpi="756">
  <defs
     id="defs4147" />
  <sodipodi:namedview
     id="base"
     pagecolor="#ffffff"
     bordercolor="#666666"
     borderopacity="1.0"
     inkscape:pageopacity="0.0"
     inkscape:pageshadow="2"
     inkscape:zoom="0.7"
     inkscape:cx="503.45643"
     inkscape:cy="308.45194"
     inkscape:document-units="px"
     inkscape:current-layer="layer1"
     showgrid="false"
     borderlayer="true"
     inkscape:showpageshadow="false"
     units="px"
     inkscape:window-width="1920"
     inkscape:window-height="1027"
     inkscape:window-x="-5"
     inkscape:window-y="-5"
     inkscape:window-maximized="1" />
  <metadata
     id="metadata4150">
    <rdf:RDF>
      <cc:Work
         rdf:about="">
        <dc:format>image/svg+xml</dc:format>
        <dc:type
           rdf:resource="http://purl.org/dc/dcmitype/StillImage" />
        <dc:title></dc:title>
      </cc:Work>
    </rdf:RDF>
  </metadata>
  <g
     inkscape:groupmode="layer"
     id="layer2"
     inkscape:label="Background"
     sodipodi:insensitive="true">
    <rect
       style="opacity:1;fill:#cccccc;fill-opacity:0;fill-rule:nonzero;stroke:none;stroke-width:10;stroke-linecap:round;stroke-linejoin:round;stroke-miterlimit:4;stroke-dasharray:none;stroke-opacity:1"
       id="rect4135"
       width="1200"
       height="865"
       x="0"
       y="0" />
  </g>
  <g
     inkscape:label="Windhelm"
     inkscape:groupmode="layer"
     id="layer1"
     transform="translate(0,-187.36216)">
    <path
       style="display:inline;opacity:1;fill:#ffffff;fill-opacity:0;fill-rule:evenodd;stroke:#ffffff;stroke-width:2.6276145px;stroke-linecap:butt;stroke-linejoin:miter;stroke-opacity:1"
       d="m 943.16421,188.91932 c -78.56983,-2.83696 -164.58993,18.57979 -302.71743,91.42536 -32.7419,-31.19762 -70.4176,-61.12302 -145.0824,-42.11826 -31.389,15.88873 -44.0504,36.00569 -46.2794,56.90731 -24.7037,19.72513 -57.6386,36.09116 -81.1109,54.92091 -10.7206,36.64721 -21.3896,73.32015 -36.8224,105.02215 l -25.2102,7.4682 c -44.122,40.27769 -90.4587,78.66037 -122.7464,129.0847 l -15.589,13.93556 c -4.0244,17.43217 -10.8019,35.55158 -21.8954,54.75153 -15.9756,12.96777 -29.1083,26.59407 -78.457901,29.94988 -18.2944,-6.11605 -36.3861,-7.10441 -54.2382,-4.23457 -17.7803035,21.46831 -15.7200038,43.35141 9.0722,65.52015 7.3894,34.11738 6.7492,71.71443 82.157701,77.66948 11.58,24.31267 23.2925,44.83887 35.4934,51.76424 -2.8045,-16.0751 -4.6903,-31.49408 -3.1507,-44.46541 34.7454,-2.0775 72.5399,-1.86542 97.4593,25.40223 15.9013,14.60792 16.7098,46.02825 -3.5457,98.51374 -18.0971,2.68326 -33.0283,1.40865 -48.7887,1.17029 5.3963,4.96513 20.848,15.11348 40.1116,21.35243 l -9.3852,21.35236 c 13.1808,22.3251 48.9037,16.0079 83.9177,2.4073 34.65,-11.54743 79.9277,-45.45141 125.815,-83.6594 44.6784,0.93273 80.084,-6.75195 91.5428,43.1463 18.421,-9.84167 36.2241,-21.03198 55.5159,-27.82489 8.7175,5.4884 18.0451,13.62751 24.3943,21.81951 -4.6847,27.16681 -4.9538,58.27288 -6.0191,90.32188 134.1552,-44.4486 220.5994,-208.16487 275.9371,-349.50245 25.5268,-65.19795 50.70343,-125.68931 72.22343,-172.16426 55.55666,-119.98137 156.31949,-222.61841 260.14799,-279.49613 -86.5854,-12.43083 -177.3892,-10.95904 -272.27849,4.13188 28.4771,-27.07612 46.4006,-47.40436 82.76989,-59.56882 -25.27079,-1.92149 -36.73299,-4.04603 -63.24079,-5.0032 z"
       id="path4150-6"
       inkscape:connector-curvature="0"
       sodipodi:nodetypes="sccccccccccccccccccccccccccsscccs" />
    <path
       style="display:inline;opacity:1;fill:#000000;fill-opacity:1;fill-rule:evenodd;stroke:#000000;stroke-width:2.6276145px;stroke-linecap:butt;stroke-linejoin:miter;stroke-opacity:1"
       d="m 943.16416,188.91945 c -78.56982,-2.83696 -164.58988,18.57979 -302.71743,91.42536 -32.74186,-31.19762 -70.41754,-61.12302 -145.08239,-42.11826 -31.38903,15.88873 -44.05043,36.00569 -46.27941,56.90731 -24.7037,19.72513 -57.63855,36.09116 -81.11088,54.92091 -10.72057,36.64721 -21.38964,73.32015 -36.82241,105.02215 l -25.21019,7.4682 c -44.12204,40.27769 -90.45875,78.66037 -122.74644,129.0847 l -15.58899,13.93556 c -4.02437,17.43217 -10.80191,35.55158 -21.89536,54.75153 -15.97566,12.96777 -29.10835,26.59407 -78.457956,29.94988 -18.29434,-6.11605 -36.386059,-7.10441 -54.238126,-4.23457 -17.7802936,21.46831 -15.7200076,43.35141 9.072175,65.52015 7.389374,34.11738 6.749168,71.71443 82.157667,77.66948 11.58007,24.31267 23.29254,44.83887 35.49338,51.76424 -2.80447,-16.0751 -4.69022,-31.49408 -3.15063,-44.46541 34.74536,-2.0775 72.53992,-1.86542 97.45929,25.40223 15.9013,14.60792 16.70976,46.02825 -3.54575,98.51374 -18.09708,2.68326 -33.02826,1.40865 -48.78864,1.17029 5.39624,4.96513 20.84798,15.11348 40.11155,21.35243 l -9.38518,21.35243 c 13.18085,22.3251 48.90374,16.0079 83.91769,2.4073 34.65004,-11.5475 79.92767,-45.45148 125.815,-83.65947 44.67846,0.93273 80.08399,-6.75195 91.54286,43.1463 18.42093,-9.84167 36.22404,-21.03198 55.51581,-27.82489 8.71753,5.4884 18.04513,13.62751 24.3943,21.81951 -4.68468,27.16681 -4.95373,58.27295 -6.01903,90.32185 134.1552,-44.4486 220.59935,-208.16484 275.93704,-349.50242 25.52687,-65.19795 50.70342,-125.68931 72.22342,-172.16426 55.55673,-119.98137 156.31947,-222.61841 260.14797,-279.49613 -86.5854,-12.43083 -177.3892,-10.95904 -272.27843,4.13188 28.47709,-27.07612 46.40059,-47.40436 82.76983,-59.56882 -25.27074,-1.92149 -36.73294,-4.04603 -63.24074,-5.0032 z m 0.7083,13.7984 c -33.97884,22.78593 -69.79416,50.20926 -98.18079,74.89044 95.11929,-17.65099 186.25653,-32.35119 277.90693,-16.88031 -100.3631,52.20385 -226.10284,219.34019 -280.6793,367.5808 -29.10851,79.06464 -52.15302,146.68751 -81.7061,205.41453 -31.77377,63.13993 -76.99963,112.96066 -121.08902,167.37539 0.91155,-23.30089 0.87692,-55.56167 -0.4413,-89.80345 -0.61408,-15.95236 8.33347,-36.92537 12.57689,-56.22464 37.0221,-30.53394 73.67382,-63.45881 93.13357,-106.988 -5.43548,-50.66009 -19.54343,-100.34096 -36.47346,-149.23094 l -7.15821,-54.66941 -23.69133,51.38443 c 6.33486,3.00271 13.35157,4.38156 17.32849,12.98598 16.62629,62.14214 45.90129,175.66073 -58.8204,233.45497 l -52.10348,33.95859 c -57.3059,33.47818 -122.05047,10.29724 -169.12849,12.31872 -18.10765,39.06526 -54.2987,64.40827 -106.73159,72.6188 -8.38856,-0.65805 -12.83739,-4.92856 -17.59532,-8.91568 l 19.23736,-53.96623 C 278.64712,874.7788 247.54639,859.55001 218.06751,834.90386 146.61993,831.18693 85.697244,822.28548 62.547254,796.89035 c -9.7691,-20.10103 -11.28325,-40.20225 -10.03687,-60.02806 7.04482,4.59108 16.89304,5.53574 27.18064,5.91814 6.66119,-17.68106 3.05871,-26.23472 1.58046,-36.17081 33.038746,-6.55088 59.724056,-24.17562 82.557886,-44.26524 29.54808,-3.81133 59.74346,-7.39435 85.81117,-2.4535 6.17837,8.53613 8.18445,25.90824 9.52888,46.14386 9.42916,141.92165 211.56177,143.00933 204.50386,20.48498 -5.65522,-98.17376 -136.70307,-90.72653 -137.81715,-17.43611 5.13885,71.1591 98.50222,63.77681 101.9184,11.15871 0.92279,-14.21318 -16.10356,-25.88451 -29.42524,-34.4946 38.95174,80.66548 -61.02883,69.74975 -55.13901,21.42649 7.74528,-63.5466 115.16293,-45.26894 106.92658,24.3192 -5.61403,47.43218 -41.56178,66.73615 -77.90894,65.515 -49.42535,-1.66053 -97.18621,-44.80448 -95.49398,-90.14217 1.56263,-41.86509 50.73114,-77.13015 65.0601,-82.4789 -26.47453,-11.91862 -55.41596,-23.42654 -95.81212,-30.69925 -8.15309,58.92097 -48.36531,63.70142 -56.60367,16.80477 l 13.72117,-30.81218 c 39.88937,-58.8661 107.55029,-94.79096 150.11181,-94.57178 5.3766,-32.90625 16.74427,-68.41299 38.98268,-106.84939 20.16605,-9.39723 42.64868,-15.80945 66.08635,-16.81505 -0.39437,12.77811 14.42472,24.67361 23.48095,35.72939 l 25.54372,-12.93979 -27.53469,-60.06396 c -3.94327,-71.12304 47.05456,-71.2509 75.04933,-62.95232 -63.56772,25.99808 -24.10144,82.28004 -14.67415,113.72081 l 16.91801,-9.95249 c -15.77111,-34.20274 -41.35485,-68.07046 16.84246,-97.17044 135.77022,56.11942 59.75142,196.25424 45.05158,189.07825 l 33.77951,14.31023 c 33.2739,-21.11179 38.30401,-103.21727 6.94268,-164.92699 81.26092,-52.55206 170.17846,-105.9658 284.1928,-103.5593 z M 266.50723,622.80642 c 8.47323,-8e-5 15.34231,5.71506 15.34265,12.76529 -3.7e-4,7.05019 -6.86942,12.76534 -15.34265,12.76526 -8.47325,1.1e-4 -15.34232,-5.71504 -15.34269,-12.76526 3.5e-4,-7.05023 6.86944,-12.7654 15.34269,-12.76529 z"
       id="path4150"
       inkscape:connector-curvature="0"
       sodipodi:nodetypes="sccccccccccccccccccccccccccsscccscccsscscccccccccccccccccccsscscssssccccccccccccccccccccccc" />
  </g>
</svg>
