<?xml version="1.0" encoding="UTF-8" standalone="no"?>
<!-- Created with Inkscape (http://www.inkscape.org/) -->

<svg
   xmlns:dc="http://purl.org/dc/elements/1.1/"
   xmlns:cc="http://creativecommons.org/ns#"
   xmlns:rdf="http://www.w3.org/1999/02/22-rdf-syntax-ns#"
   xmlns:svg="http://www.w3.org/2000/svg"
   xmlns="http://www.w3.org/2000/svg"
   xmlns:sodipodi="http://sodipodi.sourceforge.net/DTD/sodipodi-0.dtd"
   xmlns:inkscape="http://www.inkscape.org/namespaces/inkscape"
   width="1200"
   height="1064"
   viewBox="0 0 1200 1064"
   id="svg2"
   version="1.1"
   inkscape:version="0.91 r13725"
   sodipodi:docname="Winterhold.svg"
   inkscape:export-filename="C:\Users\user1\OneDrive\Nexus Files\Artist's Resource\Hold Capital Symbol Vectors\Files\PNG\Winterhold.png"
   inkscape:export-xdpi="756"
   inkscape:export-ydpi="756">
  <defs
     id="defs4">
    <filter
       style="color-interpolation-filters:sRGB"
       inkscape:label="Invert"
       id="filter4152">
      <feColorMatrix
         values="-1 0 0 0 1 0 0 -1 0 1 0 -1 0 0 1 0.21 0.72 0.07 1 0 "
         result="color2"
         id="feColorMatrix4154" />
    </filter>
  </defs>
  <sodipodi:namedview
     id="base"
     pagecolor="#ffffff"
     bordercolor="#666666"
     borderopacity="1.0"
     inkscape:pageopacity="0.0"
     inkscape:pageshadow="2"
     inkscape:zoom="0.3535534"
     inkscape:cx="638.16361"
     inkscape:cy="755.85564"
     inkscape:document-units="px"
     inkscape:current-layer="layer2"
     showgrid="false"
     units="px"
     borderlayer="true"
     inkscape:showpageshadow="false"
     showguides="true"
     inkscape:guide-bbox="true"
     inkscape:window-width="1920"
     inkscape:window-height="1027"
     inkscape:window-x="-5"
     inkscape:window-y="-5"
     inkscape:window-maximized="1"
     inkscape:snap-bbox="true"
     inkscape:snap-bbox-midpoints="true"
     inkscape:bbox-paths="true"
     inkscape:bbox-nodes="true"
     inkscape:snap-bbox-edge-midpoints="true" />
  <metadata
     id="metadata7">
    <rdf:RDF>
      <cc:Work
         rdf:about="">
        <dc:format>image/svg+xml</dc:format>
        <dc:type
           rdf:resource="http://purl.org/dc/dcmitype/StillImage" />
        <dc:title></dc:title>
      </cc:Work>
    </rdf:RDF>
  </metadata>
  <g
     inkscape:groupmode="layer"
     id="layer1"
     inkscape:label="Background"
     sodipodi:insensitive="true">
    <rect
       style="opacity:1;fill:#cccccc;fill-opacity:0;fill-rule:nonzero;stroke:none;stroke-width:10;stroke-linecap:round;stroke-linejoin:round;stroke-miterlimit:4;stroke-dasharray:none;stroke-opacity:1"
       id="rect4137"
       width="1200"
       height="1064"
       x="0"
       y="-5.6843419e-014" />
  </g>
  <g
     inkscape:groupmode="layer"
     id="layer2"
     inkscape:label="Winterhold"
     style="display:inline;opacity:1"
     transform="translate(0,644)">
    <path
       style="display:inline;opacity:1;fill:#ffffff;fill-opacity:0;fill-rule:evenodd;stroke:none;stroke-width:1px;stroke-linecap:butt;stroke-linejoin:miter;stroke-opacity:1"
       d="m 866.95435,383.79563 c 54.13725,11.1028 162.13735,34.6214 162.13735,34.6214 33.1941,7.088 43.6088,-10.447 58.4634,-36.2313 l 80.4826,-139.71113 c 34.0077,-59.02945 34.3,-109.20888 16.047,-149.598362 30.3367,-54.80752 14.7055,-124.92477 -24.9497,-162.07954 -19.1509,-83.590648 -46.2066,-165.003048 -71.2737,-246.938648 -23.6125,-77.1806 -62.9263,-56.4133 -80.8603,1.6685 l -61.93472,200.592 c -2.2675,7.3436 -7.10712,18.425998 -4.7151,40.995678 -56.65383,43.03122 -51.12903,118.89538 -19.74619,172.25352 0,0 -8.6987,15.588172 -12.60182,23.456832 -33.38612,67.30541 -102.37062,-5.25776 -142.52152,-39.568322 19.4626,-45.34222 16.0966,-94.80963 -23.3411,-136.19164 24.5749,-46.10697 23.9769,-85.025668 -0.3191,-122.889268 15.8862,-55.746 27.8657,-111.489 -21.8107,-167.235 -22.7129,-77.7719 -45.1113,-155.6618 -70.1406,-232.7172 -14.1986,-43.7122 -30.9283,-68.9617 -47.9651,-68.2066 -15.0325,0.6662 -30.3058,21.5738 -44.2857,67.9068 -22.7469,75.3893 -49.5336,150.2738 -61.6025,228.2331 -46.4093,60.7525 -49.926,114.8791 -13.8458,162.5814 -30.107,54.6512 -30.3743,83.5726 -11.2017,134.497118 -26.8192,19.1987 -59.6972,82.29854 -32.4196,139.22233 -17.5598,12.450192 -33.7628,24.667812 -48.7663,34.712732 -39.6096,26.51879 -71.8517,38.55294 -96.5361,-1.38826 l -13.8522,-22.414022 c 31.3829,-53.35814 36.9076,-129.2223 -19.7462,-172.25352 2.392,-22.56968 -2.4476,-33.652078 -4.7151,-40.995678 l -61.9347,-200.592 c -17.9341,-58.0818 -57.2479,-78.8491 -80.8603,-1.6685 -25.0672,81.9356 -52.1229,163.348 -71.2738,246.938648 -39.6552004,37.15477 -55.2865,107.27202 -24.9497,162.07954 -18.2530004,40.389482 -17.9607004,90.568912 16.047,149.598362 l 80.4825,139.71113 c 14.8547,25.7843 25.2694,43.3193 58.4636,36.2313 0,0 107.9269,-23.8822 162.1374,-34.6214 180.7867,-35.81408 365.5294,-34.5321 533.9085,0 z"
       id="path4164-1"
       inkscape:connector-curvature="0"
       sodipodi:nodetypes="ssccccsccccsccccsssccccssccccsccccsss" />
    <path
       style="fill:#000000;fill-opacity:1;fill-rule:evenodd;stroke:none;stroke-width:1px;stroke-linecap:butt;stroke-linejoin:miter;stroke-opacity:1"
       d="m 326.37684,351.25976 c -39.42371,8.49656 -118.47048,24.54525 -118.47048,24.54525 -42.76408,8.86008 -52.71946,18.28477 -83.63465,-34.39985 C 108.82634,315.08367 86.348155,274.98202 67.078159,241.79018 31.746267,180.93235 17.013909,114.02578 80.161947,61.317994 89.825196,53.252351 107.8665,35.658246 107.8665,35.658246 c 9.9817,11.526212 19.89457,23.097846 30.65475,33.917568 l -35.01818,38.173526 c -26.78546,29.19967 -38.634445,35.70509 -17.740293,77.44862 l 80.163443,160.16338 36.25559,-17.40198 -77.21977,-159.8701 c -10.44221,-10.04655 -20.80355,-20.07754 -25.867996,-29.35524 4.057036,-6.98189 11.191266,-14.12837 17.583986,-19.78746 18.45485,-16.38096 12.90123,-6.26044 37.46041,11.68609 18.67506,-13.49823 35.38711,-31.418351 51.87276,-49.846549 18.46458,-23.691529 30.45409,-48.014485 12.08085,-82.5844603 l 3.04139,-10.0501467 17.59051,-38.616775 c 47.42212,28.082407 31.41966,97.844417 9.53445,139.254954 -13.15489,24.891237 -38.14221,47.205817 -55.80641,67.802537 -6.58729,7.43909 -3.21446,17.03547 1.77143,26.83947 l 48.33645,120.63415 c 6.09098,15.19761 12.82024,13.73029 18.26782,12.09017 l 35.12235,-10.57157 -64.39645,-136.81734 c -10.94585,-17.86334 -3.26401,-27.20112 4.81281,-36.36165 l 15.03102,-16.22231 c 0,0 7.79454,17.53609 12.38043,25.95307 39.12991,68.80498 94.45244,45.47454 144.17569,10.4021 20.97561,-14.79525 40.95241,-31.68082 58.30073,-44.61948 7.23108,13.48478 16.61246,25.30935 26.01127,37.28063 -68.19451,52.43402 -77.74662,73.72281 -77.94267,98.8589 -0.36376,46.63548 36.57468,27.66825 77.52585,20.85632 27.92555,-4.64521 54.35011,-5.27042 77.10902,-5.83978 L 559.788,170.22702 C 482.85499,133.40251 429.24714,14.67031 497.78821,-30.117322 c 7.37677,13.935258 17.50924,25.7323387 27.40494,37.8737499 -14.47082,36.5805221 6.31818,66.8496201 33.75476,95.7499821 26.299,26.79938 62.13061,47.27589 92.98674,61.6369 2.77138,12.88764 1.13955,25.73586 -0.44937,38.66237 l -6.46049,52.55788 131.08535,17.72782 c 8.13547,-46.15121 28.7694,-94.46438 -93.57288,-118.04665 -23.29585,-26.57506 -43.59462,-55.61077 -64.81323,-83.842328 15.53868,-10.426117 30.35516,-21.891861 45.40575,-33.005092 23.74271,27.651087 62.31223,52.655785 99.53123,86.59135 64.4959,58.80617 138.5645,94.32706 175.22833,16.34754 4.07856,-8.6746 10.71324,-25.95307 10.71324,-25.95307 l 15.03106,16.22231 c 8.07676,9.16053 15.75858,18.49831 4.81281,36.36165 l -64.39649,136.81734 35.12239,10.57157 c 5.44758,1.64012 12.17683,3.10744 18.26783,-12.09017 l 48.33642,-120.63415 c 4.9858,-9.804 8.3587,-19.40038 1.7714,-26.83947 -17.66418,-20.59672 -42.65147,-42.9113 -55.80636,-67.802537 -21.88519,-41.410537 -37.88771,-111.172547 9.53443,-139.254954 l 17.59048,38.616775 3.0414,10.0501467 c -18.37321,34.5699753 -6.38369,58.8929313 12.08088,82.5844603 16.48557,18.428198 33.19767,36.348319 51.87267,49.846549 24.5592,-17.94653 19.0056,-28.06705 37.4604,-11.68609 6.3928,5.65909 13.527,12.80557 17.5841,19.78746 -5.0645,9.2777 -15.4258,19.30867 -25.868,29.35524 l -77.21979,159.8701 36.25549,17.40198 80.1636,-160.16338 c 20.8941,-41.74353 9.0451,-48.24895 -17.7404,-77.44862 l -35.0181,-38.173526 c 10.7601,-10.819722 20.673,-22.391356 30.6547,-33.917568 0,0 18.0413,17.594105 27.7046,25.659748 63.148,52.707786 48.4156,119.614356 13.0838,180.472186 -19.27,33.19184 -41.7482,73.29349 -57.1936,99.61498 -30.9152,52.68462 -40.8705,43.25993 -83.63465,34.39985 0,0 -79.11168,-15.75242 -118.4705,-24.54525 -184.84518,-41.29489 -366.59342,-38.93419 -547.24631,0 z m 540.57743,32.53583 c 54.13729,11.10277 162.13743,34.62144 162.13743,34.62144 33.1941,7.088 43.6088,-10.44707 58.4634,-36.2313 l 80.4826,-139.71116 c 34.0077,-59.02945 34.3,-109.20888 16.047,-149.598356 30.3367,-54.807518 14.7055,-124.924771 -24.9497,-162.079542 -19.1509,-83.590672 -46.2066,-165.003042 -71.2737,-246.938642 -23.6125,-77.18059 -62.9263,-56.41327 -80.8603,1.6685 l -61.93476,200.59203 c -2.2675,7.34351 -7.10712,18.425918 -4.7151,40.995639 -56.65383,43.03122 -51.12908,118.89538 -19.74619,172.253521 0,0 -8.6987,15.58817 -12.60182,23.45683 -33.38617,67.30541 -102.37063,-5.25776 -142.5215,-39.568316 19.46254,-45.342222 16.09655,-94.809627 -23.34113,-136.191646 24.57494,-46.106988 23.97693,-85.025658 -0.31911,-122.889248 15.88626,-55.74606 27.86575,-111.48898 -21.81066,-167.23499 -22.71293,-77.77191 -45.11131,-155.6618 -70.14061,-232.71726 -14.19862,-43.71221 -30.92836,-68.96171 -47.96516,-68.20662 -15.03248,0.66626 -30.30579,21.57389 -44.28565,67.90682 -22.74688,75.38931 -49.53363,150.27384 -61.60252,228.23315 -46.40928,60.7525 -49.92601,114.87903 -13.84575,162.58139 -30.10707,54.65117 -30.37433,83.5726 -11.2017,134.497109 C 444.15013,-31.56636 411.27212,31.533484 438.54967,88.457268 420.9899,100.90746 404.78695,113.12508 389.78341,123.17 c -39.60956,26.51879 -71.8517,38.55294 -96.53607,-1.38826 L 279.39509,99.36772 c 31.38288,-53.358141 36.90763,-129.222301 -19.7462,-172.253521 2.39204,-22.569721 -2.44761,-33.652129 -4.71512,-40.995639 l -61.93471,-200.59203 c -17.93408,-58.08177 -57.24786,-78.84909 -80.8603,-1.6685 C 87.071573,-234.20637 60.015906,-152.794 40.864991,-69.203328 1.2097887,-32.048557 -14.421441,38.068696 15.915264,92.876214 -2.3376901,133.26569 -2.0453609,183.44512 31.962281,242.47457 l 80.482569,139.71116 c 14.85463,25.78423 25.26936,43.3193 58.46351,36.2313 0,0 107.92692,-23.88227 162.13742,-34.62144 180.78674,-35.81407 365.52938,-34.53209 533.90849,0 z M 604.72485,-602.74019 c 4.08908,0.0435 8.43752,7.69873 13.31179,24.60392 l 55.70215,193.19455 8.84408,31.85148 c -13.05276,-5.55409 -26.28542,-10.45053 -39.78539,-14.7493 -11.71464,-45.09397 -37.62346,-61.80136 -64.83932,-24.7734 -14.31988,21.72837 -7.52661,40.32666 -1.17878,58.99077 l 14.73148,35.39706 c -7.6394,9.8042 -15.86465,19.07921 -24.16826,28.31244 l -23.97934,-43.49193 c -17.73041,-32.15131 -5.93348,-71.4174 0.4429,-94.00978 l 49.18303,-174.26094 c 3.82139,-13.53967 7.64667,-21.10834 11.73566,-21.06487 z m 2.05152,248.28125 c 86.79567,-1.28031 137.96456,78.87252 107.93309,157.10666 -11.00718,-13.84976 -22.82383,-26.50537 -35.07024,-35.39709 -1.8765,-45.41757 -15.56321,-86.58587 -82.8206,-92.32172 l -7.86722,-28.01915 c 6.08956,-0.83387 12.03858,-1.28331 17.82497,-1.3687 z m -454.90431,27.71935 c 3.9464,-0.45674 8.05728,7.34731 13.20101,24.7799 l 57.14795,193.68338 c 7.09111,35.306782 -4.58821,61.594386 -16.7178,87.668129 L 191.74864,6.7136221 c -7.59542,-10.6417766 -15.67972,-20.5525651 -25.42515,-29.4074141 0,0 12.85168,-25.336372 17.58399,-38.688465 10.32163,-29.122146 -4.67609,-63.954383 -33.11651,-64.993423 -21.48944,-0.7851 -35.37292,15.14226 -39.97427,35.794637 -12.212669,3.097706 -23.526674,7.39968 -33.272813,13.035156 18.703939,-75.365823 39.883523,-149.992443 62.104043,-224.413803 4.49583,-15.60563 8.27773,-24.32315 12.22413,-24.7799 z m 896.25584,0 c 3.9465,0.45675 7.7283,9.17427 12.2242,24.7799 22.2205,74.42136 43.4001,149.04798 62.104,224.413803 -9.7461,-5.635476 -21.0602,-9.93745 -33.2728,-13.035156 -4.6014,-20.652377 -18.4848,-36.579737 -39.9743,-35.794637 -28.4404,1.03904 -43.4381,35.871277 -33.1165,64.993423 4.7323,13.352093 17.584,38.688465 17.584,38.688465 -9.7454,8.854849 -17.8297,18.7656375 -25.4251,29.4074141 L 994.49679,-20.608181 c -12.12961,-26.073743 -23.8089,-52.361347 -16.7178,-87.668129 l 57.14791,-193.68338 c 5.1438,-17.43259 9.2546,-25.23664 13.201,-24.7799 z m -532.10444,1.83798 c 7.23685,13.4098 21.07473,40.50681 21.07473,40.50681 -18.05632,41.20131 -11.77326,68.6683 15.05056,93.69046 12.16499,11.34787 36.81569,33.69597 36.81569,33.69597 -9.1841,10.34644 -17.62362,21.31646 -26.25878,32.11869 -31.26827,-25.04303 -57.80931,-60.41085 -68.35611,-95.73043 -15.01436,-53.2484 2.15705,-79.43489 21.67391,-104.2815 z m 107.61398,21.65795 c 20.56238,7.34919 31.96359,23.92597 10.31595,55.15839 -15.49739,22.35911 -40.47215,36.22877 -61.2444,53.7441 -9.59087,-9.83513 -18.32599,-19.83145 -23.63418,-30.73701 22.60182,-28.32436 48.3729,-53.29975 74.56263,-78.16548 z m 25.05395,62.82312 c 33.82134,25.93231 60.88134,60.26454 71.91201,91.73513 11.16064,25.28821 9.8423,53.861145 -8.84411,87.009898 -10.87703,-11.464845 -22.15498,-22.50062 -33.59849,-33.389641 10.80919,-50.437957 -30.74967,-70.117227 -60.43677,-110.746967 12.60219,-11.07869 22.27135,-22.74789 30.96736,-34.60842 z m -19.92202,74.65252 c 13.38224,9.80752 22.33486,20.68847 27.92596,32.95295 -26.2737,36.343994 -54.82524,58.944878 -82.3191,76.959757 -6.49217,-6.814799 -15.59466,-23.470948 -18.2092,-32.503236 22.32222,-26.340711 44.88753,-52.610701 72.60234,-77.409471 z m -122.3325,5.21406 c 8.62822,13.17437 19.47721,24.4624 30.01003,36.08143 -6.49989,25.439496 1.3553,40.10442 7.71092,55.894891 11.52837,21.062521 26.88784,38.585922 45.64024,52.974999 -12.13526,9.8759704 -23.19926,20.993588 -34.5949,31.70157 L 523.4348,-23.625815 C 487.08545,-70.568808 480.72649,-122.63439 506.43687,-160.55396 Z m 143.79799,58.39763 c 50.83993,59.126476 122.16059,101.32697743 80.86028,178.321439 -13.85211,-9.890061 -27.19006,-20.120065 -39.37507,-31.95576 2.92713,-36.8543442 -12.00744,-60.145266 -31.69025,-79.83404 -12.61481,-12.954241 -25.2681,-25.734954 -38.97137,-33.787237 11.14606,-10.440883 21.35008,-21.196058 29.17641,-32.744402 z m -481.35843,24.551803 c -0.65154,9.354315 -3.67074,18.162984 -9.43023,26.337609 C 109.58639,-57.094457 71.122437,-0.4473917 78.397037,41.263432 66.572065,53.097497 54.883574,65.067263 43.157421,76.999398 10.606051,-22.457039 74.123466,-79.350982 168.87643,-77.604527 Z m 862.24717,0 c 94.753,-1.746512 158.2703,55.147432 125.719,154.603869 -11.7262,-11.932107 -23.4147,-23.901874 -35.2396,-35.735939 12.7028,-45.4591074 -34.1271,-98.461134 -81.0492,-92.530321 -5.7595,-8.174625 -8.7787,-16.983294 -9.4302,-26.337609 z m -388.80803,46.35966 c 10.385,9.920182 19.69124,21.5670217 27.30076,35.9315175 C 637.03453,36.833547 602.70227,65.042007 567.91571,92.224453 556.59676,80.560711 547.075,68.222455 540.19815,54.891652 570.07273,23.500213 597.52581,-9.4491638 642.31557,-31.244867 Z m -513.08778,9.704692 c 10.52033,0.35932 23.2069,11.9403474 42.30577,31.590786 l 37.09568,38.167035 c -6.17521,11.958263 -15.23016,22.768056 -25.3144,33.16152 L 135.86411,39.19731 c -31.52939,-28.025931 -29.5261,-43.4167234 -20.03923,-53.978738 4.28404,-4.769547 8.62094,-6.922068 13.40291,-6.758747 z m 941.54441,0 c 4.782,-0.163405 9.1189,1.9892 13.4029,6.758747 9.4869,10.5620146 11.4902,25.952807 -20.0392,53.978738 l -47.4507,42.181856 C 1006.601,70.985702 997.54597,60.175909 991.37072,48.217646 l 37.09578,-38.167035 c 19.0988,-19.6504386 31.7853,-31.231466 42.3057,-31.590786 z"
       id="path4164"
       inkscape:connector-curvature="0"
       sodipodi:nodetypes="sssssccscccccccccccscccccccccsccssccccccscccccssccccccccscccccccccccsccssssssssccccsccccsccccsssccccssccccsccccsssssccccccccssssccccsssccccsscccsscccssccccssccscccccsccccccccccccccccccccccccccccccccccccccccccsscccsssscccss" />
  </g>
</svg>
