<?xml version="1.0" encoding="iso-8859-1"?>
<!-- Generator: Adobe Illustrator 19.0.0, SVG Export Plug-In . SVG Version: 6.00 Build 0)  -->
<svg version="1.1" id="Layer_1" xmlns="http://www.w3.org/2000/svg" xmlns:xlink="http://www.w3.org/1999/xlink" x="0px" y="0px"
	 viewBox="0 0 509.707 509.707" style="enable-background:new 0 0 509.707 509.707;" xml:space="preserve">
<g>
	<path style="fill:#93593A;" d="M192.432,504.537L5.172,317.277c-6.894-6.894-6.894-18.079,0-24.973l24.964-24.964
		c6.894-6.894,18.079-6.894,24.973,0l187.26,187.26c6.894,6.894,6.894,18.079,0,24.973l-24.973,24.964
		C210.502,511.431,199.326,511.431,192.432,504.537"/>
	<path style="fill:#CB8252;" d="M454.598,167.466L342.24,55.108c-6.894-6.894-6.894-18.07,0-24.964l24.973-24.973
		c6.894-6.894,18.07-6.894,24.964,0l112.358,112.358c6.894,6.894,6.894,18.079,0,24.973l-24.973,24.964
		C472.668,174.36,461.492,174.36,454.598,167.466"/>
	<path style="fill:#AA8E75;" d="M248.61,61.351c-13.789,13.789-36.149,13.789-49.938,0c-13.789-13.789-13.789-36.149,0-49.938
		c13.789-13.789,36.149-13.789,49.938,0C262.399,25.202,262.399,47.563,248.61,61.351"/>
	<path style="fill:#E2C5A6;" d="M504.534,292.307L257.75,45.523c-1.536,5.835-4.573,11.255-9.137,15.828
		c-4.573,4.573-10.002,7.601-15.828,9.145l246.784,246.775c3.443,3.452,9.031,3.452,12.482,0l12.482-12.482
		C507.985,301.347,507.985,295.759,504.534,292.307"/>
	<path style="fill:#AA8E75;" d="M137.497,108.127c-17.055,9.463-38.55,3.302-48.004-13.753
		c-9.463-17.055-3.302-38.541,13.745-48.004c17.055-9.454,38.55-3.302,48.013,13.753C160.704,77.177,154.552,98.664,137.497,108.127
		"/>
	<path style="fill:#E2C5A6;" d="M345.622,446.943L150.647,95.428c-3.09,5.182-7.495,9.56-13.153,12.703
		c-5.65,3.134-11.697,4.555-17.726,4.431l194.975,351.506c2.366,4.264,7.742,5.809,12.006,3.443l15.439-8.563
		C346.452,456.583,347.988,451.207,345.622,446.943"/>
	<g>
		<path style="fill:#93593A;" d="M435.872,223.645l24.964-24.964c6.894-6.894,6.894-18.079,0-24.973l-124.84-124.84
			c-6.894-6.894-18.07-6.894-24.964,0l-24.973,24.964L435.872,223.645z"/>
		<path style="fill:#93593A;" d="M254.852,92.562L254.852,92.562l-24.964,24.964c-6.903,6.894-6.903,18.079,0,24.973L367.21,279.822
			c6.894,6.894,18.07,6.894,24.964,0l24.973-24.964l0,0L254.852,92.562z"/>
	</g>
	<path style="fill:#CB8252;" d="M268.698,381.058L111.285,223.645c-6.894-6.894-18.07-6.894-24.964,0l-24.973,24.964
		c-6.894,6.894-6.894,18.079,0,24.973L236.125,448.36c6.894,6.894,18.079,6.894,24.973,0l24.964-24.973
		c1.465-1.457,2.551-3.143,3.39-4.908L268.698,381.058z"/>
	<g>
		<path style="fill:#93593A;" d="M154.313,174.842c-4.29,0.159-8.545,1.827-11.82,5.111l-24.964,24.964
			c-6.894,6.894-6.894,18.07,0,24.964l151.172,151.172L154.313,174.842z"/>
		<path style="fill:#93593A;" d="M311.515,385.453l18.238-18.238c6.894-6.894,6.894-18.079,0-24.973l-94.782-94.782L311.515,385.453
			z"/>
	</g>
	<path style="fill:#CB8252;" d="M373.451,286.065L223.638,136.252c-6.894-6.894-18.07-6.894-24.964,0l-16.331,16.331l52.63,94.87
		l88.541,88.55c6.894,6.894,18.079,6.894,24.973,0l24.964-24.973C380.345,304.136,380.345,292.96,373.451,286.065"/>
</g>
<g>
</g>
<g>
</g>
<g>
</g>
<g>
</g>
<g>
</g>
<g>
</g>
<g>
</g>
<g>
</g>
<g>
</g>
<g>
</g>
<g>
</g>
<g>
</g>
<g>
</g>
<g>
</g>
<g>
</g>
</svg>
